<svg xmlns="http://www.w3.org/2000/svg" xmlns:xlink="http://www.w3.org/1999/xlink" preserveAspectRatio="xMidYMid meet" width="64" height="72" viewBox="0 0 64 72" style="width:100%;height:100%"><defs><animateMotion repeatCount="indefinite" dur="1s" begin="0s" xlink:href="#_R_G_L_22_G_N_21_T_0" fill="freeze" keyTimes="0;0.1;0.6;1" path="M-17.37 -5.56 C-17.37,-5.56 -17.37,-4.31 -17.37,-4.31 C-17.37,-4.31 -17.37,-5.56 -17.37,-5.56 C-17.37,-5.56 -17.37,-5.56 -17.37,-5.56 " keyPoints="0;0.5;1;1" keySplines="0.167 0.167 0.833 0.833;0.167 0.167 0.833 0.833;0 0 0 0" calcMode="spline"/><animateTransform repeatCount="indefinite" dur="1s" begin="0s" xlink:href="#_R_G_L_22_G_N_21_T_0" fill="freeze" attributeName="transform" from="-0.125 3.812" to="-0.125 3.812" type="translate" additive="sum" keyTimes="0;1" values="-0.125 3.812;-0.125 3.812" keySplines="0 0 1 1" calcMode="spline"/><animateMotion repeatCount="indefinite" dur="1s" begin="0s" xlink:href="#_R_G_L_22_G_N_21_N_8_T_0" fill="freeze" keyTimes="0;0.5;1" path="M0.5 13.5 C0.5,13.5 0.5,12.25 0.5,12.25 C0.5,12.25 0.5,13.5 0.5,13.5 " keyPoints="0;0.5;1" keySplines="0.167 0.167 0.833 0.833;0.167 0.167 0.833 0.833" calcMode="spline"/><animateMotion repeatCount="indefinite" dur="1s" begin="0s" xlink:href="#_R_G_L_21_G_N_21_T_0" fill="freeze" keyTimes="0;0.1;0.6;1" path="M-17.37 -5.56 C-17.37,-5.56 -17.37,-4.31 -17.37,-4.31 C-17.37,-4.31 -17.37,-5.56 -17.37,-5.56 C-17.37,-5.56 -17.37,-5.56 -17.37,-5.56 " keyPoints="0;0.5;1;1" keySplines="0.167 0.167 0.833 0.833;0.167 0.167 0.833 0.833;0 0 0 0" calcMode="spline"/><animateTransform repeatCount="indefinite" dur="1s" begin="0s" xlink:href="#_R_G_L_21_G_N_21_T_0" fill="freeze" attributeName="transform" from="-0.125 3.812" to="-0.125 3.812" type="translate" additive="sum" keyTimes="0;1" values="-0.125 3.812;-0.125 3.812" keySplines="0 0 1 1" calcMode="spline"/><animateMotion repeatCount="indefinite" dur="1s" begin="0s" xlink:href="#_R_G_L_21_G_N_21_N_8_T_0" fill="freeze" keyTimes="0;0.5;1" path="M0.5 13.5 C0.5,13.5 0.5,12.25 0.5,12.25 C0.5,12.25 0.5,13.5 0.5,13.5 " keyPoints="0;0.5;1" keySplines="0.167 0.167 0.833 0.833;0.167 0.167 0.833 0.833" calcMode="spline"/><animateMotion repeatCount="indefinite" dur="1s" begin="0s" xlink:href="#_R_G_L_20_G" fill="freeze" keyTimes="0;0.1;0.6;1" path="M-17.37 -5.56 C-17.37,-5.56 -17.37,-4.31 -17.37,-4.31 C-17.37,-4.31 -17.37,-5.56 -17.37,-5.56 C-17.37,-5.56 -17.37,-5.56 -17.37,-5.56 " keyPoints="0;0.5;1;1" keySplines="0.167 0.167 0.833 0.833;0.167 0.167 0.833 0.833;0 0 0 0" calcMode="spline"/><animateTransform repeatCount="indefinite" dur="1s" begin="0s" xlink:href="#_R_G_L_20_G" fill="freeze" attributeName="transform" from="-0.125 3.812" to="-0.125 3.812" type="translate" additive="sum" keyTimes="0;1" values="-0.125 3.812;-0.125 3.812" keySplines="0 0 1 1" calcMode="spline"/><animateMotion repeatCount="indefinite" dur="1s" begin="0s" xlink:href="#_R_G_L_20_G_N_8_T_0" fill="freeze" keyTimes="0;0.5;1" path="M0.5 13.5 C0.5,13.5 0.5,12.25 0.5,12.25 C0.5,12.25 0.5,13.5 0.5,13.5 " keyPoints="0;0.5;1" keySplines="0.167 0.167 0.833 0.833;0.167 0.167 0.833 0.833" calcMode="spline"/><animateMotion repeatCount="indefinite" dur="1s" begin="0s" xlink:href="#_R_G_L_19_G_N_18_T_0" fill="freeze" keyTimes="0;0.1;0.6;1" path="M17.5 -5.69 C17.5,-5.69 17.5,-4.44 17.5,-4.44 C17.5,-4.44 17.5,-5.69 17.5,-5.69 C17.5,-5.69 17.5,-5.69 17.5,-5.69 " keyPoints="0;0.5;1;1" keySplines="0.167 0.167 0.833 0.833;0.167 0.167 0.833 0.833;0 0 0 0" calcMode="spline"/><animateTransform repeatCount="indefinite" dur="1s" begin="0s" xlink:href="#_R_G_L_19_G_N_18_T_0" fill="freeze" attributeName="transform" from="0 3.938" to="0 3.938" type="translate" additive="sum" keyTimes="0;1" values="0 3.938;0 3.938" keySplines="0 0 1 1" calcMode="spline"/><animateMotion repeatCount="indefinite" dur="1s" begin="0s" xlink:href="#_R_G_L_19_G_N_18_N_8_T_0" fill="freeze" keyTimes="0;0.5;1" path="M0.5 13.5 C0.5,13.5 0.5,12.25 0.5,12.25 C0.5,12.25 0.5,13.5 0.5,13.5 " keyPoints="0;0.5;1" keySplines="0.167 0.167 0.833 0.833;0.167 0.167 0.833 0.833" calcMode="spline"/><animateMotion repeatCount="indefinite" dur="1s" begin="0s" xlink:href="#_R_G_L_18_G_N_18_T_0" fill="freeze" keyTimes="0;0.1;0.6;1" path="M17.5 -5.69 C17.5,-5.69 17.5,-4.44 17.5,-4.44 C17.5,-4.44 17.5,-5.69 17.5,-5.69 C17.5,-5.69 17.5,-5.69 17.5,-5.69 " keyPoints="0;0.5;1;1" keySplines="0.167 0.167 0.833 0.833;0.167 0.167 0.833 0.833;0 0 0 0" calcMode="spline"/><animateTransform repeatCount="indefinite" dur="1s" begin="0s" xlink:href="#_R_G_L_18_G_N_18_T_0" fill="freeze" attributeName="transform" from="0 3.938" to="0 3.938" type="translate" additive="sum" keyTimes="0;1" values="0 3.938;0 3.938" keySplines="0 0 1 1" calcMode="spline"/><animateMotion repeatCount="indefinite" dur="1s" begin="0s" xlink:href="#_R_G_L_18_G_N_18_N_8_T_0" fill="freeze" keyTimes="0;0.5;1" path="M0.5 13.5 C0.5,13.5 0.5,12.25 0.5,12.25 C0.5,12.25 0.5,13.5 0.5,13.5 " keyPoints="0;0.5;1" keySplines="0.167 0.167 0.833 0.833;0.167 0.167 0.833 0.833" calcMode="spline"/><animateMotion repeatCount="indefinite" dur="1s" begin="0s" xlink:href="#_R_G_L_17_G" fill="freeze" keyTimes="0;0.1;0.6;1" path="M17.5 -5.69 C17.5,-5.69 17.5,-4.44 17.5,-4.44 C17.5,-4.44 17.5,-5.69 17.5,-5.69 C17.5,-5.69 17.5,-5.69 17.5,-5.69 " keyPoints="0;0.5;1;1" keySplines="0.167 0.167 0.833 0.833;0.167 0.167 0.833 0.833;0 0 0 0" calcMode="spline"/><animateTransform repeatCount="indefinite" dur="1s" begin="0s" xlink:href="#_R_G_L_17_G" fill="freeze" attributeName="transform" from="0 3.938" to="0 3.938" type="translate" additive="sum" keyTimes="0;1" values="0 3.938;0 3.938" keySplines="0 0 1 1" calcMode="spline"/><animateMotion repeatCount="indefinite" dur="1s" begin="0s" xlink:href="#_R_G_L_17_G_N_8_T_0" fill="freeze" keyTimes="0;0.5;1" path="M0.5 13.5 C0.5,13.5 0.5,12.25 0.5,12.25 C0.5,12.25 0.5,13.5 0.5,13.5 " keyPoints="0;0.5;1" keySplines="0.167 0.167 0.833 0.833;0.167 0.167 0.833 0.833" calcMode="spline"/><animateMotion repeatCount="indefinite" dur="1s" begin="0s" xlink:href="#_R_G_L_10_G_N_8_T_0" fill="freeze" keyTimes="0;0.5;1" path="M0.5 13.5 C0.5,13.5 0.5,12.25 0.5,12.25 C0.5,12.25 0.5,13.5 0.5,13.5 " keyPoints="0;0.5;1" keySplines="0.167 0.167 0.833 0.833;0.167 0.167 0.833 0.833" calcMode="spline"/><animateMotion repeatCount="indefinite" dur="1s" begin="0s" xlink:href="#_R_G_L_9_G_N_8_T_0" fill="freeze" keyTimes="0;0.5;1" path="M0.5 13.5 C0.5,13.5 0.5,12.25 0.5,12.25 C0.5,12.25 0.5,13.5 0.5,13.5 " keyPoints="0;0.5;1" keySplines="0.167 0.167 0.833 0.833;0.167 0.167 0.833 0.833" calcMode="spline"/><animateMotion repeatCount="indefinite" dur="1s" begin="0s" xlink:href="#_R_G_L_8_G_N_8_T_0" fill="freeze" keyTimes="0;0.5;1" path="M0.5 13.5 C0.5,13.5 0.5,12.25 0.5,12.25 C0.5,12.25 0.5,13.5 0.5,13.5 " keyPoints="0;0.5;1" keySplines="0.167 0.167 0.833 0.833;0.167 0.167 0.833 0.833" calcMode="spline"/><animateMotion repeatCount="indefinite" dur="1s" begin="0s" xlink:href="#_R_G_L_7_G" fill="freeze" keyTimes="0;0.5;1" path="M0.5 13.5 C0.5,13.5 0.5,12.25 0.5,12.25 C0.5,12.25 0.5,13.5 0.5,13.5 " keyPoints="0;0.5;1" keySplines="0.167 0.167 0.833 0.833;0.167 0.167 0.833 0.833" calcMode="spline"/><animateMotion repeatCount="indefinite" dur="1s" begin="0s" xlink:href="#_R_G_L_6_G_N_2_T_0" fill="freeze" keyTimes="0;0.25;0.4833333;0.75;1" path="M0 -14.75 C0,-14.75 0,-13.5 0,-13.5 C0,-13.5 0,-14.08 0,-14.08 C0,-14.08 0,-14.75 0,-14.75 C0,-14.75 0,-14.75 0,-14.75 " keyPoints="0;0.5;0.73;1;1" keySplines="0.167 0.167 0.833 0.833;0.167 0.167 0.833 0.833;0.167 0.167 0.833 0.833;0 0 0 0" calcMode="spline"/><animateMotion repeatCount="indefinite" dur="1s" begin="0s" xlink:href="#_R_G_L_5_G_N_2_T_0" fill="freeze" keyTimes="0;0.25;0.4833333;0.75;1" path="M0 -14.75 C0,-14.75 0,-13.5 0,-13.5 C0,-13.5 0,-14.08 0,-14.08 C0,-14.08 0,-14.75 0,-14.75 C0,-14.75 0,-14.75 0,-14.75 " keyPoints="0;0.5;0.73;1;1" keySplines="0.167 0.167 0.833 0.833;0.167 0.167 0.833 0.833;0.167 0.167 0.833 0.833;0 0 0 0" calcMode="spline"/><animateMotion repeatCount="indefinite" dur="1s" begin="0s" xlink:href="#_R_G_L_4_G_N_2_T_0" fill="freeze" keyTimes="0;0.25;0.4833333;0.75;1" path="M0 -14.75 C0,-14.75 0,-13.5 0,-13.5 C0,-13.5 0,-14.08 0,-14.08 C0,-14.08 0,-14.75 0,-14.75 C0,-14.75 0,-14.75 0,-14.75 " keyPoints="0;0.5;0.73;1;1" keySplines="0.167 0.167 0.833 0.833;0.167 0.167 0.833 0.833;0.167 0.167 0.833 0.833;0 0 0 0" calcMode="spline"/><animateMotion repeatCount="indefinite" dur="1s" begin="0s" xlink:href="#_R_G_L_3_G_N_2_T_0" fill="freeze" keyTimes="0;0.25;0.4833333;0.75;1" path="M0 -14.75 C0,-14.75 0,-13.5 0,-13.5 C0,-13.5 0,-14.08 0,-14.08 C0,-14.08 0,-14.75 0,-14.75 C0,-14.75 0,-14.75 0,-14.75 " keyPoints="0;0.5;0.73;1;1" keySplines="0.167 0.167 0.833 0.833;0.167 0.167 0.833 0.833;0.167 0.167 0.833 0.833;0 0 0 0" calcMode="spline"/><animateMotion repeatCount="indefinite" dur="1s" begin="0s" xlink:href="#_R_G_L_2_G_N_2_T_0" fill="freeze" keyTimes="0;0.25;0.4833333;0.75;1" path="M0 -14.75 C0,-14.75 0,-13.5 0,-13.5 C0,-13.5 0,-14.08 0,-14.08 C0,-14.08 0,-14.75 0,-14.75 C0,-14.75 0,-14.75 0,-14.75 " keyPoints="0;0.5;0.73;1;1" keySplines="0.167 0.167 0.833 0.833;0.167 0.167 0.833 0.833;0.167 0.167 0.833 0.833;0 0 0 0" calcMode="spline"/><animateMotion repeatCount="indefinite" dur="1s" begin="0s" xlink:href="#_R_G_L_1_G" fill="freeze" keyTimes="0;0.25;0.4833333;0.75;1" path="M0 -14.75 C0,-14.75 0,-13.5 0,-13.5 C0,-13.5 0,-14.08 0,-14.08 C0,-14.08 0,-14.75 0,-14.75 C0,-14.75 0,-14.75 0,-14.75 " keyPoints="0;0.5;0.73;1;1" keySplines="0.167 0.167 0.833 0.833;0.167 0.167 0.833 0.833;0.167 0.167 0.833 0.833;0 0 0 0" calcMode="spline"/><animate attributeType="XML" attributeName="opacity" dur="1s" from="0" to="1" xlink:href="#time_group"/></defs><g id="_R_G"><g id="_R_G_L_23_G_N_1_T_0" transform=" translate(32, 36) translate(0, 0)"><g id="_R_G_L_23_G" opacity="0.5" transform=" translate(0.5, 28.5) translate(0, 0)"><path id="_R_G_L_23_G_D_0_P_0" fill="#000000" fill-opacity="1" fill-rule="nonzero" d=" M14.5 0 C14.5,0 14.5,0 14.5,0 C14.5,0.83 13.83,1.5 13,1.5 C13,1.5 -13,1.5 -13,1.5 C-13.83,1.5 -14.5,0.83 -14.5,0 C-14.5,0 -14.5,0 -14.5,0 C-14.5,-0.83 -13.83,-1.5 -13,-1.5 C-13,-1.5 13,-1.5 13,-1.5 C13.83,-1.5 14.5,-0.83 14.5,0z "/><path id="_R_G_L_23_G_D_1_P_0" stroke="#707070" stroke-linecap="round" stroke-linejoin="round" fill="none" stroke-width="0" stroke-opacity="1" d=" M14.5 0 C14.5,0 14.5,0 14.5,0 C14.5,0.83 13.83,1.5 13,1.5 C13,1.5 -13,1.5 -13,1.5 C-13.83,1.5 -14.5,0.83 -14.5,0 C-14.5,0 -14.5,0 -14.5,0 C-14.5,-0.83 -13.83,-1.5 -13,-1.5 C-13,-1.5 13,-1.5 13,-1.5 C13.83,-1.5 14.5,-0.83 14.5,0z "/></g></g><g id="_R_G_L_22_G_N_21_N_8_N_1_T_0" transform=" translate(32, 36) translate(0, 0)"><g id="_R_G_L_22_G_N_21_N_8_T_0"><g id="_R_G_L_22_G_N_21_T_0"><g id="_R_G_L_22_G" transform=" translate(0, 0) translate(0, -4)"><path id="_R_G_L_22_G_D_0_P_0" fill="#000000" fill-opacity="0" fill-rule="nonzero" d=" M0 0 C0,0 0,8 0,8 "/><path id="_R_G_L_22_G_D_1_P_0" stroke="#c7d6dc" stroke-linecap="round" stroke-linejoin="round" fill="none" stroke-width="4" stroke-opacity="1" d=" M0 0 C0,0 0,8 0,8 "/></g></g></g></g><g id="_R_G_L_21_G_N_21_N_8_N_1_T_0" transform=" translate(32, 36) translate(0, 0)"><g id="_R_G_L_21_G_N_21_N_8_T_0"><g id="_R_G_L_21_G_N_21_T_0"><g id="_R_G_L_21_G" transform=" translate(0, 1) translate(0, 0)"><path id="_R_G_L_21_G_D_0_P_0" fill="#000000" fill-opacity="0" fill-rule="nonzero" d=" M0 0 C0,0 0,0 0,0 "/><path id="_R_G_L_21_G_D_1_P_0" stroke="#6c828b" stroke-linecap="round" stroke-linejoin="round" fill="none" stroke-width="4" stroke-opacity="1" d=" M0 0 C0,0 0,0 0,0 "/></g></g></g></g><g id="_R_G_L_20_G_N_8_N_1_T_0" transform=" translate(32, 36) translate(0, 0)"><g id="_R_G_L_20_G_N_8_T_0"><g id="_R_G_L_20_G"/></g></g><g id="_R_G_L_19_G_N_18_N_8_N_1_T_0" transform=" translate(32, 36) translate(0, 0)"><g id="_R_G_L_19_G_N_18_N_8_T_0"><g id="_R_G_L_19_G_N_18_T_0"><g id="_R_G_L_19_G" transform=" translate(0, 0) translate(0, -4)"><path id="_R_G_L_19_G_D_0_P_0" fill="#000000" fill-opacity="0" fill-rule="nonzero" d=" M0 0 C0,0 0,8 0,8 "/><path id="_R_G_L_19_G_D_1_P_0" stroke="#c7d6dc" stroke-linecap="round" stroke-linejoin="round" fill="none" stroke-width="4" stroke-opacity="1" d=" M0 0 C0,0 0,8 0,8 "/></g></g></g></g><g id="_R_G_L_18_G_N_18_N_8_N_1_T_0" transform=" translate(32, 36) translate(0, 0)"><g id="_R_G_L_18_G_N_18_N_8_T_0"><g id="_R_G_L_18_G_N_18_T_0"><g id="_R_G_L_18_G" transform=" translate(0, 1) translate(0, 0)"><path id="_R_G_L_18_G_D_0_P_0" fill="#000000" fill-opacity="0" fill-rule="nonzero" d=" M0 0 C0,0 0,0 0,0 "/><path id="_R_G_L_18_G_D_1_P_0" stroke="#6c828b" stroke-linecap="round" stroke-linejoin="round" fill="none" stroke-width="4" stroke-opacity="1" d=" M0 0 C0,0 0,0 0,0 "/></g></g></g></g><g id="_R_G_L_17_G_N_8_N_1_T_0" transform=" translate(32, 36) translate(0, 0)"><g id="_R_G_L_17_G_N_8_T_0"><g id="_R_G_L_17_G"/></g></g><g id="_R_G_L_16_G_N_15_N_1_T_0" transform=" translate(32, 36) translate(0, 0)"><g id="_R_G_L_16_G_N_15_T_0" transform=" translate(-11, 23) translate(0, 0)"><g id="_R_G_L_16_G" transform=" translate(0, 0) translate(0, -4)"><path id="_R_G_L_16_G_D_0_P_0" fill="#000000" fill-opacity="0" fill-rule="nonzero" d=" M0 0 C0,0 0,8 0,8 "/><path id="_R_G_L_16_G_D_1_P_0" stroke="#6c828b" stroke-linecap="round" stroke-linejoin="round" fill="none" stroke-width="4" stroke-opacity="1" d=" M0 0 C0,0 0,8 0,8 "/></g></g></g><g id="_R_G_L_15_G_N_15_N_1_T_0" transform=" translate(32, 36) translate(0, 0)"><g id="_R_G_L_15_G_N_15_T_0" transform=" translate(-11, 23) translate(0, 0)"><g id="_R_G_L_15_G" transform=" translate(0, 1) translate(0, 0)"><path id="_R_G_L_15_G_D_0_P_0" fill="#000000" fill-opacity="0" fill-rule="nonzero" d=" M0 0 C0,0 0,0 0,0 "/><path id="_R_G_L_15_G_D_1_P_0" stroke="#506973" stroke-linecap="round" stroke-linejoin="round" fill="none" stroke-width="4" stroke-opacity="1" d=" M0 0 C0,0 0,0 0,0 "/></g></g></g><g id="_R_G_L_14_G_N_1_T_0" transform=" translate(32, 36) translate(0, 0)"><g id="_R_G_L_14_G" transform=" translate(-11, 23) translate(0, 0)"/></g><g id="_R_G_L_13_G_N_12_N_1_T_0" transform=" translate(32, 36) translate(0, 0)"><g id="_R_G_L_13_G_N_12_T_0" transform=" translate(12, 23) translate(0, 0)"><g id="_R_G_L_13_G" transform=" translate(0, 0) translate(0, -4)"><path id="_R_G_L_13_G_D_0_P_0" fill="#000000" fill-opacity="0" fill-rule="nonzero" d=" M0 0 C0,0 0,8 0,8 "/><path id="_R_G_L_13_G_D_1_P_0" stroke="#6c828b" stroke-linecap="round" stroke-linejoin="round" fill="none" stroke-width="4" stroke-opacity="1" d=" M0 0 C0,0 0,8 0,8 "/></g></g></g><g id="_R_G_L_12_G_N_12_N_1_T_0" transform=" translate(32, 36) translate(0, 0)"><g id="_R_G_L_12_G_N_12_T_0" transform=" translate(12, 23) translate(0, 0)"><g id="_R_G_L_12_G" transform=" translate(0, 1) translate(0, 0)"><path id="_R_G_L_12_G_D_0_P_0" fill="#000000" fill-opacity="0" fill-rule="nonzero" d=" M0 0 C0,0 0,0 0,0 "/><path id="_R_G_L_12_G_D_1_P_0" stroke="#506973" stroke-linecap="round" stroke-linejoin="round" fill="none" stroke-width="4" stroke-opacity="1" d=" M0 0 C0,0 0,0 0,0 "/></g></g></g><g id="_R_G_L_11_G_N_1_T_0" transform=" translate(32, 36) translate(0, 0)"><g id="_R_G_L_11_G" transform=" translate(12, 23) translate(0, 0)"/></g><g id="_R_G_L_10_G_N_8_N_1_T_0" transform=" translate(32, 36) translate(0, 0)"><g id="_R_G_L_10_G_N_8_T_0"><g id="_R_G_L_10_G" transform=" translate(0, 0) translate(-13.5, -6.5)"><path id="_R_G_L_10_G_D_0_P_0" fill="#9babb2" fill-opacity="1" fill-rule="nonzero" d=" M0 2 C0,0.9 0.9,0 2,0 C2,0 25,0 25,0 C26.11,0 27,0.9 27,2 C27,2 27,11 27,11 C27,12.11 26.11,13 25,13 C25,13 2,13 2,13 C0.9,13 0,12.11 0,11 C0,11 0,2 0,2z "/><path id="_R_G_L_10_G_D_1_P_0" stroke="#707070" stroke-linecap="round" stroke-linejoin="round" fill="none" stroke-width="0" stroke-opacity="1" d=" M0 2 C0,0.9 0.9,0 2,0 C2,0 25,0 25,0 C26.11,0 27,0.9 27,2 C27,2 27,11 27,11 C27,12.11 26.11,13 25,13 C25,13 2,13 2,13 C0.9,13 0,12.11 0,11 C0,11 0,2 0,2z "/></g></g></g><g id="_R_G_L_9_G_N_8_N_1_T_0" transform=" translate(32, 36) translate(0, 0)"><g id="_R_G_L_9_G_N_8_T_0"><g id="_R_G_L_9_G" transform=" translate(1, -3) translate(-8.5, -3.5)"><path id="_R_G_L_9_G_D_0_P_0" fill="#6c828b" fill-opacity="1" fill-rule="nonzero" d=" M0 0 C0,0 17,0 17,0 C17,0 17,3 17,3 C17,5.21 15.21,7 13,7 C13,7 4,7 4,7 C1.79,7 0,5.21 0,3 C0,3 0,0 0,0z "/><path id="_R_G_L_9_G_D_1_P_0" stroke="#707070" stroke-linecap="round" stroke-linejoin="round" fill="none" stroke-width="0" stroke-opacity="1" d=" M0 0 C0,0 17,0 17,0 C17,0 17,3 17,3 C17,5.21 15.21,7 13,7 C13,7 4,7 4,7 C1.79,7 0,5.21 0,3 C0,3 0,0 0,0z "/></g></g></g><g id="_R_G_L_8_G_N_8_N_1_T_0" transform=" translate(32, 36) translate(0, 0)"><g id="_R_G_L_8_G_N_8_T_0"><g id="_R_G_L_8_G" transform=" translate(0, 5) translate(-13.5, -1.5)"><path id="_R_G_L_8_G_D_0_P_0" fill="#6c828b" fill-opacity="1" fill-rule="nonzero" d=" M0 0 C0,0 27,0 27,0 C27,0 27,1 27,1 C27,2.11 26.11,3 25,3 C25,3 2,3 2,3 C0.9,3 0,2.11 0,1 C0,1 0,0 0,0z "/><path id="_R_G_L_8_G_D_1_P_0" stroke="#707070" stroke-linecap="round" stroke-linejoin="round" fill="none" stroke-width="0" stroke-opacity="1" d=" M0 0 C0,0 27,0 27,0 C27,0 27,1 27,1 C27,2.11 26.11,3 25,3 C25,3 2,3 2,3 C0.9,3 0,2.11 0,1 C0,1 0,0 0,0z "/></g></g></g><g id="_R_G_L_7_G_N_1_T_0" transform=" translate(32, 36) translate(0, 0)"><g id="_R_G_L_7_G"/></g><g id="_R_G_L_6_G_N_2_N_1_T_0" transform=" translate(32, 36) translate(0, 0)"><g id="_R_G_L_6_G_N_2_T_0"><g id="_R_G_L_6_G" transform=" translate(0, 0) translate(-24, -16.5)"><path id="_R_G_L_6_G_D_0_P_0" fill="#6c828b" fill-opacity="1" fill-rule="nonzero" d=" M0 8 C0,3.58 3.58,0 8,0 C8,0 40,0 40,0 C44.42,0 48,3.58 48,8 C48,8 48,25 48,25 C48,29.42 44.42,33 40,33 C40,33 8,33 8,33 C3.58,33 0,29.42 0,25 C0,25 0,8 0,8z "/><path id="_R_G_L_6_G_D_1_P_0" stroke="#707070" stroke-linecap="round" stroke-linejoin="round" fill="none" stroke-width="0" stroke-opacity="1" d=" M0 8 C0,3.58 3.58,0 8,0 C8,0 40,0 40,0 C44.42,0 48,3.58 48,8 C48,8 48,25 48,25 C48,29.42 44.42,33 40,33 C40,33 8,33 8,33 C3.58,33 0,29.42 0,25 C0,25 0,8 0,8z "/></g></g></g><g id="_R_G_L_5_G_N_2_N_1_T_0" transform=" translate(32, 36) translate(0, 0)"><g id="_R_G_L_5_G_N_2_T_0"><g id="_R_G_L_5_G" transform=" translate(7, 4) translate(-17, -12.5)"><path id="_R_G_L_5_G_D_0_P_0" fill="#a3b4bc" fill-opacity="1" fill-rule="nonzero" d=" M0 4 C0,1.79 1.79,0 4,0 C4,0 30,0 30,0 C32.21,0 34,1.79 34,4 C34,4 34,17 34,17 C34,21.42 30.42,25 26,25 C26,25 4,25 4,25 C1.79,25 0,23.21 0,21 C0,21 0,4 0,4z "/><path id="_R_G_L_5_G_D_1_P_0" stroke="#707070" stroke-linecap="round" stroke-linejoin="round" fill="none" stroke-width="0" stroke-opacity="1" d=" M0 4 C0,1.79 1.79,0 4,0 C4,0 30,0 30,0 C32.21,0 34,1.79 34,4 C34,4 34,17 34,17 C34,21.42 30.42,25 26,25 C26,25 4,25 4,25 C1.79,25 0,23.21 0,21 C0,21 0,4 0,4z "/></g></g></g><g id="_R_G_L_4_G_N_2_N_1_T_0" transform=" translate(32, 36) translate(0, 0)"><g id="_R_G_L_4_G_N_2_T_0"><g id="_R_G_L_4_G" transform=" translate(-1, 2) translate(0, -3.5)"><path id="_R_G_L_4_G_D_0_P_0" fill="#000000" fill-opacity="0" fill-rule="nonzero" d=" M0 0 C0,0 0,7 0,7 "/><path id="_R_G_L_4_G_D_1_P_0" stroke="#000000" stroke-linecap="round" stroke-linejoin="round" fill="none" stroke-width="5" stroke-opacity="1" d=" M0 0 C0,0 0,7 0,7 "/></g></g></g><g id="_R_G_L_3_G_N_2_N_1_T_0" transform=" translate(32, 36) translate(0, 0)"><g id="_R_G_L_3_G_N_2_T_0"><g id="_R_G_L_3_G" transform=" translate(14, 1.5) translate(0, -3.5)"><path id="_R_G_L_3_G_D_0_P_0" fill="#000000" fill-opacity="0" fill-rule="nonzero" d=" M0 0 C0,0 0,7 0,7 "/><path id="_R_G_L_3_G_D_1_P_0" stroke="#000000" stroke-linecap="round" stroke-linejoin="round" fill="none" stroke-width="5" stroke-opacity="1" d=" M0 0 C0,0 0,7 0,7 "/></g></g></g><g id="_R_G_L_2_G_N_2_N_1_T_0" transform=" translate(32, 36) translate(0, 0)"><g id="_R_G_L_2_G_N_2_T_0"><g id="_R_G_L_2_G" transform=" translate(2.5, 0) translate(0, 0)"><path id="_R_G_L_2_G_D_0_P_0" fill="#000000" fill-opacity="0" fill-rule="nonzero" d=" M19.5 -8.5 C19.5,-8.5 19.5,8.5 19.5,8.5 C19.5,11.81 16.81,14.5 13.5,14.5 C13.5,14.5 -13.5,14.5 -13.5,14.5 C-16.81,14.5 -19.5,11.81 -19.5,8.5 C-19.5,8.5 -19.5,-8.5 -19.5,-8.5 C-19.5,-11.81 -16.81,-14.5 -13.5,-14.5 C-13.5,-14.5 13.5,-14.5 13.5,-14.5 C16.81,-14.5 19.5,-11.81 19.5,-8.5z "/><path id="_R_G_L_2_G_D_1_P_0" stroke="#ffffff" stroke-linecap="round" stroke-linejoin="round" fill="none" stroke-width="4" stroke-opacity="1" d=" M19.5 -8.5 C19.5,-8.5 19.5,8.5 19.5,8.5 C19.5,11.81 16.81,14.5 13.5,14.5 C13.5,14.5 -13.5,14.5 -13.5,14.5 C-16.81,14.5 -19.5,11.81 -19.5,8.5 C-19.5,8.5 -19.5,-8.5 -19.5,-8.5 C-19.5,-11.81 -16.81,-14.5 -13.5,-14.5 C-13.5,-14.5 13.5,-14.5 13.5,-14.5 C16.81,-14.5 19.5,-11.81 19.5,-8.5z "/></g></g></g><g id="_R_G_L_1_G_N_1_T_0" transform=" translate(32, 36) translate(0, 0)"><g id="_R_G_L_1_G"/></g><g id="_R_G_L_0_G" transform=" translate(32, 36) translate(0, 0)"/></g><g id="time_group"/></svg>