<svg xmlns="http://www.w3.org/2000/svg" xmlns:xlink="http://www.w3.org/1999/xlink" width="500" height="120" viewBox="0 0 500 120">
  <defs>
    <clipPath id="clip-path">
      <rect id="rect8" width="18.439" height="12.821" rx="2.883" fill="#9babb2"/>
    </clipPath>
    <clipPath id="clip-bot">
      <rect width="500" height="120"/>
    </clipPath>
  </defs>
  <g id="bot" clip-path="url(#clip-bot)">
    <rect width="500" height="120" fill="#fff"/>
    <g id="buddy" transform="translate(23.453 27.585)">
      <rect id="rect5-7-9" width="3.851" height="26.279" rx="1.925" transform="translate(39.508 61.027) rotate(90)" fill="rgba(0,0,0,0.53)"/>
      <g id="arm-left-group" transform="translate(41.116 37.829) rotate(-45)">
        <rect id="rect26" width="4.626" height="17.306" rx="2.046" fill="#c7d6dc"/>
        <rect id="rect27" width="4.361" height="3.698" transform="translate(0.149 9.053)" fill="#9babb2"/>
      </g>
      <rect id="rect5" width="3.902" height="18.719" rx="1.951" transform="translate(13.089 45.008)" fill="#9babb2"/>
      <rect id="rect5-7" width="3.996" height="17.107" rx="1.973" transform="translate(36.041 46.629)" fill="#9babb2"/>
      <rect id="rect1" width="26.875" height="18.526" rx="4.076" transform="translate(13.087 35.117)" fill="#c7d6dc"/>
      <g id="Group_1" data-name="Group 1" transform="translate(17.696 31.425)" clip-path="url(#clip-path)">
        <path id="path7" d="M19.418,35.84a3.874,3.874,0,0,0-4.076,3.654V50.713a3.873,3.873,0,0,0,4.076,3.652H38.141a3.873,3.873,0,0,0,4.076-3.652V39.494a3.874,3.874,0,0,0-4.076-3.654Z" transform="translate(-19.951 -32.148)" fill="#9babb2"/>
      </g>
      <rect id="rect30" width="27.021" height="3.034" transform="translate(13.009 50.664)" fill="#9babb2"/>
      <g id="arm-right-group" transform="translate(4.666 35.68)">
        <rect id="rect3" width="4.47" height="17.075" rx="2.046" transform="translate(0.007)" fill="#c7d6dc"/>
        <rect id="rect22" width="4.361" height="3.698" transform="translate(0 8.821)" fill="#9babb2"/>
      </g>
      <g id="head-group" transform="translate(0 0)">
        <rect id="head" width="50.005" height="32.786" rx="9.012" fill="#9babb2"/>
        <g id="face-group" transform="translate(8.825 2.052)">
          <rect id="rect17" width="31.091" height="23.583" rx="4.03" transform="translate(6.921 5.878)" fill="#c7d6dc"/>
          <rect id="face" width="39.435" height="28.892" rx="6.4" fill="none" stroke="#fff" stroke-width="4"/>
          <rect id="eye-right" width="2.433" height="9.2" rx="1.072" transform="translate(14.247 11.381)" stroke="#000" stroke-width="2.667"/>
          <rect id="eye-left" width="2.196" height="8.866" rx="1" transform="translate(29.517 11.42)" stroke="#000" stroke-width="2.667"/>
        </g>
      </g>
    </g>
  </g>
</svg>
