<svg width="160" height="160" viewBox="0 0 160 160" fill="none" xmlns="http://www.w3.org/2000/svg">
<g clip-path="url(#clip0_10003_5017)">
<path d="M42.7054 70.4849C41.8679 67.4449 43.6214 64.3465 46.6221 63.5646L53.8662 61.6767C56.8669 60.8947 59.9783 62.7252 60.8158 65.7652L62.8378 73.1045C63.6753 76.1445 61.9218 79.2429 58.9211 80.0248L51.6769 81.9127C48.6763 82.6947 45.5649 80.8642 44.7274 77.8242L42.7054 70.4849Z" fill="white"/>
<path d="M69.8711 63.4053C69.0335 60.3653 70.7871 57.267 73.7877 56.485L81.0319 54.5971C84.0325 53.8151 87.144 55.6456 87.9815 58.6856L90.0034 66.0249C90.8409 69.0649 89.0874 72.1633 86.0868 72.9453L78.8426 74.8331C75.842 75.6151 72.7305 73.7846 71.893 70.7446L69.8711 63.4053Z" fill="white"/>
<path d="M49.7822 96.1724C48.9447 93.1323 50.6983 90.034 53.6989 89.252L60.9431 87.3641C63.9437 86.5821 67.0551 88.4126 67.8927 91.4526L69.9146 98.7919C70.7521 101.832 68.9986 104.93 65.9979 105.712L58.7538 107.6C55.7531 108.382 52.6417 106.552 51.8042 103.512L49.7822 96.1724Z" fill="white"/>
<path d="M76.9479 89.0928C76.1104 86.0528 77.8639 82.9544 80.8645 82.1724L88.1087 80.2845C91.1093 79.5025 94.2208 81.333 95.0583 84.3731L97.0802 91.7123C97.9178 94.7524 96.1642 97.8507 93.1636 98.6327L85.9194 100.521C82.9188 101.303 79.8073 99.4721 78.9698 96.4321L76.9479 89.0928Z" fill="white"/>
</g>
<defs>
<clipPath id="clip0_10003_5017">
<rect width="58.4854" height="57.0952" fill="white" transform="matrix(0.967679 -0.252185 0.265602 0.964083 34.013 60.9509)"/>
</clipPath>
</defs>
</svg>
