<svg width="160" height="160" viewBox="0 0 160 160" fill="none" xmlns="http://www.w3.org/2000/svg">
<path fill-rule="evenodd" clip-rule="evenodd" d="M92.5873 75.4038C95.9374 87.5639 88.5178 100.063 76.0151 103.321C63.5125 106.58 50.6613 99.3632 47.3113 87.2031C43.9612 75.043 51.3808 62.5439 63.8834 59.2856C76.3861 56.0274 89.2373 63.2437 92.5873 75.4038ZM50.93 80.2982C50.8239 82.2024 51.0209 84.155 51.5559 86.0969C51.8245 87.0721 52.1684 88.0081 52.5797 88.9006C54.4642 89.7534 56.6765 90.2398 59.2345 90.3554C58.5206 88.7915 57.8835 87.0473 57.3487 85.1058C57.044 84 56.801 82.9334 56.6139 81.9057C54.5114 81.6635 52.6829 81.1086 50.93 80.2982ZM51.4073 77.0702C52.8404 77.7303 54.4085 78.2594 56.1865 78.5798C55.806 73.329 56.9712 69.2762 58.7006 66.3535C55.0234 68.9721 52.443 72.7959 51.4073 77.0702ZM59.6199 82.0377C59.7723 82.7897 59.9575 83.5664 60.1784 84.3684C60.8089 86.6568 61.5855 88.6265 62.4564 90.3166C64.8932 90.1613 67.5904 89.7308 70.5593 89.0222L68.2849 80.7665C64.8769 81.584 62.0591 81.9874 59.6199 82.0377ZM67.5245 78.0065C64.2989 78.7425 61.5505 78.997 59.1537 78.9002C58.4631 71.3655 61.3017 66.8054 63.8615 64.7105L67.5245 78.0065ZM71.1146 80.029L73.3891 88.2848C76.3245 87.4547 78.8817 86.5158 81.0718 85.4652C80.9572 83.5781 80.6172 81.4946 79.9867 79.2062C79.7658 78.4042 79.5269 77.6415 79.2723 76.9162C77.134 78.0587 74.4863 79.0797 71.1146 80.029ZM78.063 73.9723C76.0372 75.2217 73.5261 76.3378 70.3543 77.269L66.6913 63.973C69.985 64.5424 74.7877 67.1112 78.063 73.9723ZM81.8077 75.3399C82.174 76.3209 82.5118 77.3628 82.8165 78.4687C83.3513 80.4101 83.6963 82.2306 83.882 83.932C86.0379 82.588 87.7037 81.0909 88.8974 79.4359C88.7947 78.4629 88.6113 77.4851 88.3427 76.51C87.8077 74.568 86.9744 72.7812 85.9037 71.1838C84.8023 72.7381 83.504 74.1078 81.8077 75.3399ZM83.8309 68.6204C82.9291 69.889 81.8431 71.1097 80.468 72.2519C78.0982 67.5195 75.0056 64.5763 72.0054 62.8862C76.5362 63.3657 80.7366 65.4224 83.8309 68.6204ZM66.311 99.4871C61.7446 98.6194 57.6235 96.1394 54.7904 92.5203C56.6648 93.2114 58.6625 93.6676 61.0773 93.7624C62.6703 96.2602 64.4768 98.1278 66.311 99.4871ZM73.2085 99.5519C70.6977 99.0476 67.3948 97.4009 64.5537 93.665C66.5633 93.4882 68.8466 93.1027 71.5074 92.4636L73.4485 99.5095C73.3685 99.5242 73.2885 99.5383 73.2085 99.5519ZM76.2783 98.7721L74.3372 91.7261C76.9701 90.9857 79.1456 90.2092 80.9768 89.385C80.437 94.002 78.4232 97.0343 76.508 98.692C76.4317 98.7191 76.3551 98.7458 76.2783 98.7721ZM82.448 95.2816C83.3377 93.2124 83.9421 90.7166 84.0376 87.7788C86.0801 86.5224 87.5757 85.1558 88.8437 83.6457C88.2507 88.1577 85.9566 92.3095 82.448 95.2816Z" fill="white"/>
</svg>
