<svg width="160" height="160" viewBox="0 0 160 160" fill="none" xmlns="http://www.w3.org/2000/svg">
  <g opacity="0.5">
  <path d="M13.214 27.7967C8.40525 29.0499 5.55155 33.8572 6.84004 38.5342L37.1693 148.623C38.4577 153.3 43.4005 156.076 48.2092 154.823L126.572 134.401L91.5764 7.37482L13.214 27.7967Z" fill="#9D84FF"/>
  <path d="M100.283 5.10572L135.279 132.132L137.455 131.564C142.264 130.311 145.118 125.504 143.829 120.827L113.5 10.7377C112.212 6.06077 107.269 3.28526 102.46 4.53844L100.283 5.10572Z" fill="currentColor"/>
  </g>
  <path opacity="0.2" d="M48.2095 154.823C47.9461 154.891 47.6822 154.948 47.4186 154.993C48.6281 155.342 49.9307 155.448 51.2556 155.264L73.0061 152.237L144.216 133.679C149.024 132.426 151.878 127.618 150.59 122.942L120.26 12.8524C119.105 8.65822 115.011 5.99319 110.71 6.39151C112.02 7.49831 113.017 8.98442 113.5 10.7378L143.829 120.827C145.118 125.504 142.264 130.311 137.455 131.564L48.2095 154.823Z" fill="currentColor"/>
  <path opacity="0.4" d="M118.637 9.69689C119.372 10.6034 119.933 11.6668 120.26 12.8524L150.589 122.941C151.878 127.618 149.024 132.426 144.215 133.679L93.9547 146.777L148.732 135.89C154.022 135.154 157.496 130.128 156.2 125.086L128.458 16.2755C127.353 11.9779 123.133 9.16985 118.637 9.69689Z" fill="currentColor"/>
  </svg>
