<svg width="160" height="160" viewBox="0 0 160 160" fill="none" xmlns="http://www.w3.org/2000/svg">
<g clip-path="url(#clip0_10003_5101)">
<path fill-rule="evenodd" clip-rule="evenodd" d="M41.5901 65.0601L61.2016 59.9491L66.4565 79.0234L46.845 84.1343L41.5901 65.0601ZM48.3176 68.8378L50.7291 77.5911L59.7291 75.2457L57.3175 66.4923L48.3176 68.8378ZM67.4483 60.4511L87.0599 55.3401L88.4816 60.5005L68.87 65.6115L67.4483 60.4511ZM70.1864 70.39L89.7981 65.279L91.2197 70.4395L71.6081 75.5504L70.1864 70.39Z" fill="white"/>
<path fill-rule="evenodd" clip-rule="evenodd" d="M48.3668 89.6582L67.9783 84.5473L73.2332 103.622L53.6217 108.732L48.3668 89.6582ZM55.0942 93.4359L57.5058 102.189L66.5057 99.8438L64.0942 91.0904L55.0942 93.4359ZM74.2249 85.0492L93.8366 79.9383L95.2583 85.0987L75.6466 90.2096L74.2249 85.0492ZM76.9631 94.9881L96.5747 89.8772L97.9964 95.0376L78.3848 100.149L76.9631 94.9881Z" fill="white"/>
</g>
<defs>
<clipPath id="clip0_10003_5101">
<rect width="58.4854" height="57.0952" fill="white" transform="matrix(0.967679 -0.252185 0.265602 0.964083 34.013 60.9507)"/>
</clipPath>
</defs>
</svg>
