<svg width="160" height="160" viewBox="0 0 160 160" fill="none" xmlns="http://www.w3.org/2000/svg">
<path fill-rule="evenodd" clip-rule="evenodd" d="M53.795 70.5447L59.5468 91.4225C59.7832 92.2807 60.9684 92.4325 61.4252 91.6631L75.0678 68.6808C77.221 65.0534 82.8085 65.7689 83.9231 69.8146L89.6749 90.6924L85.9962 91.6511L80.2444 70.7733C80.008 69.9151 78.8228 69.7634 78.366 70.5328L64.7234 93.5151C62.5702 97.1425 56.9827 96.427 55.8681 92.3812L50.1163 71.5034L53.795 70.5447Z" fill="white"/>
<path d="M49.703 62.851C45.0623 64.0604 42.3084 68.6997 43.5518 73.2132C44.7953 77.7268 49.5653 80.4053 54.206 79.1959C58.8467 77.9865 61.6006 73.3472 60.3572 68.8336C59.1137 64.3201 54.3437 61.6416 49.703 62.851Z" fill="white"/>
<path d="M85.5801 82.9994C80.9394 84.2088 78.1855 88.8481 79.4289 93.3617C80.6724 97.8752 85.4424 100.554 90.0831 99.3443C94.7238 98.1349 97.4777 93.4956 96.2343 88.982C94.9908 84.4685 90.2208 81.79 85.5801 82.9994Z" fill="white"/>
</svg>
