<svg width="160" height="160" viewBox="0 0 160 160" fill="none" xmlns="http://www.w3.org/2000/svg">
<path d="M58.5738 84.0485L52.9143 85.5234L58.2219 104.789C58.6407 106.309 60.2471 107.211 61.8099 106.804L90.1074 99.4292C91.6703 99.0219 92.5977 97.4595 92.179 95.9395L86.8714 76.6739L81.2118 78.1488L85.003 91.9099L62.365 97.8096L58.5738 84.0485Z" fill="white"/>
<path fill-rule="evenodd" clip-rule="evenodd" d="M48.2801 77.8816L86.9561 67.8023L77.1318 58.5633L52.0386 65.1028L48.2801 77.8816ZM45.1901 79.5039C45.0527 79.0051 45.0572 78.4793 45.2033 77.9828L49.222 64.3191C49.505 63.3569 50.2864 62.6096 51.2804 62.3506L76.3736 55.8111C77.3676 55.552 78.4284 55.8192 79.1682 56.5149L89.6728 66.3937C90.0545 66.7527 90.3288 67.2058 90.4662 67.7046L91.0144 69.6945L45.7383 81.4938L45.1901 79.5039Z" fill="white"/>
<path fill-rule="evenodd" clip-rule="evenodd" d="M87.4264 67.6797C88.9893 67.2725 90.5956 68.1745 91.0144 69.6945L91.2671 70.6119C92.4183 74.7903 89.6734 78.8935 85.5073 79.9792C83.659 80.4609 81.7478 80.2922 80.0926 79.5906C79.0199 81.0031 77.4514 82.0786 75.6031 82.5603C73.7549 83.042 71.8436 82.8733 70.1885 82.1717C69.1157 83.5842 67.5472 84.6597 65.699 85.1414C63.8508 85.6231 61.9395 85.4544 60.2843 84.7528C59.2116 86.1653 57.6431 87.2408 55.7949 87.7225C51.6288 88.8082 47.1422 86.5896 45.9911 82.4112L45.7383 81.4938C45.3196 79.9738 46.247 78.4114 47.8099 78.0041L87.4264 67.6797ZM57.8595 83.1512C58.3517 82.5284 58.6843 81.8023 58.8184 81.0349C58.8688 80.7466 59.4507 80.595 59.6425 80.8201C60.1532 81.4195 60.8145 81.8866 61.5609 82.1866C62.5839 82.5978 63.7667 82.6951 64.9408 82.3892C66.1148 82.0832 67.0891 81.4237 67.7637 80.5701C68.2559 79.9473 68.5885 79.2212 68.7225 78.4538C68.7675 78.1964 69.3754 78.038 69.5467 78.239C70.0573 78.8384 70.7186 79.3055 71.4651 79.6055C72.488 80.0167 73.6709 80.114 74.8449 79.8081C76.0189 79.5021 76.9933 78.8426 77.6678 77.989C78.16 77.3662 78.4926 76.6401 78.6267 75.8727C78.6717 75.6153 79.2795 75.4569 79.4508 75.6579C79.9614 76.2573 80.6228 76.7244 81.3692 77.0244C82.3922 77.4356 83.575 77.5329 84.749 77.227C86.7797 76.6978 88.213 75.1108 88.5308 73.2916C88.6411 72.6606 88.6171 72.0018 88.4374 71.3494L88.1847 70.432L48.5681 80.7564L48.8208 81.6738C49.0006 82.3262 49.3185 82.9084 49.7384 83.4012C50.9489 84.8221 53.006 85.4995 55.0366 84.9703C56.2106 84.6643 57.185 84.0048 57.8595 83.1512Z" fill="white"/>
<path fill-rule="evenodd" clip-rule="evenodd" d="M57.2931 61.0012C58.1011 60.9625 58.7883 61.5682 58.8281 62.3541L59.5556 76.7293C59.5954 77.5151 58.9726 78.1836 58.1646 78.2222C57.3566 78.2609 56.6693 77.6552 56.6296 76.8693L55.9021 62.4941C55.8623 61.7083 56.4851 61.0399 57.2931 61.0012Z" fill="white"/>
<path fill-rule="evenodd" clip-rule="evenodd" d="M70.6253 57.5238C69.9021 57.8765 69.6098 58.7325 69.9725 59.4359L76.5922 72.2755C76.9548 72.9789 77.835 73.2631 78.5582 72.9104C79.2813 72.5577 79.5736 71.7017 79.211 70.9983L72.5912 58.1587C72.2286 57.4554 71.3484 57.1711 70.6253 57.5238Z" fill="white"/>
<path fill-rule="evenodd" clip-rule="evenodd" d="M63.9017 59.3885C63.1204 59.5927 62.6572 60.3742 62.8671 61.134L66.5832 74.5876C66.7931 75.3474 67.5966 75.798 68.3779 75.5938C69.1592 75.3897 69.6223 74.6082 69.4125 73.8483L65.6963 60.3948C65.4864 59.6349 64.6829 59.1844 63.9017 59.3885Z" fill="white"/>
</svg>
