<svg width="160" height="160" viewBox="0 0 160 160" fill="none" xmlns="http://www.w3.org/2000/svg">
  <path fill-rule="evenodd" clip-rule="evenodd" d="M52.7487 73.9131C53.0847 75.1327 54.4587 75.8343 55.8177 75.4802L84.4844 68.0094C86.0472 67.6021 87.6536 68.5041 88.0723 70.0241L93.4923 89.6975C93.9111 91.2175 92.9836 92.7799 91.4208 93.1872L61.6943 100.934C57.795 101.95 53.8524 99.9371 52.8883 96.4376L47.2809 76.0839C46.3168 72.5843 48.6962 68.9236 52.5956 67.9074L76.3129 61.7265C77.2874 61.4725 78.289 62.035 78.5502 62.9828C78.8113 63.9306 78.233 64.9048 77.2585 65.1587L54.6009 71.0635C53.2419 71.4176 52.4127 72.6934 52.7487 73.9131ZM76.6897 83.752C76.0616 81.4719 77.4527 79.1284 79.797 78.5174C82.1412 77.9065 84.5508 79.2596 85.179 81.5396C85.8071 83.8196 84.4159 86.1632 82.0717 86.7741C79.7274 87.385 77.3178 86.032 76.6897 83.752Z" fill="currentColor"/>
  </svg>
