<svg width="160" height="160" viewBox="0 0 160 160" fill="none" xmlns="http://www.w3.org/2000/svg">
<path d="M47.4284 72.6296L58.2218 62.1319L65.3489 69.0084L67.696 71.3465L75.162 78.6079L64.3685 89.1056L47.4284 72.6296Z" fill="white"/>
<path d="M56.934 100.366L49.8403 96.383L88.367 86.3426L87.8219 92.3167L84.0113 93.3098C83.0789 93.5528 81.3639 94.5829 81.9636 96.7594C82.5632 98.9359 84.578 98.9941 85.5104 98.7511L87.2003 98.3107L88.3246 102.392L63.3397 108.903L62.2154 104.822L65.3164 104.014C67.5543 103.431 67.6141 101.471 67.3642 100.564C67.1144 99.6572 66.0552 97.9893 63.8174 98.5725L56.934 100.366Z" fill="white"/>
<path d="M79.4664 55.2997L65.3489 69.0084L67.696 71.3465L81.5637 57.4081L79.4664 55.2997Z" fill="white"/>
</svg>
