<svg width="64" height="64" viewBox="0 0 64 64" fill="none" xmlns="http://www.w3.org/2000/svg">
<path opacity="0.34" d="M50.6343 54.4369C50.659 55.5188 51.107 56.5564 51.8797 57.3215C52.6524 58.0865 53.6865 58.5163 54.7545 58.5163C55.2885 58.5163 55.8056 58.7312 56.1919 59.1137C56.5783 59.4962 56.8023 60.015 56.8146 60.556C56.827 61.097 56.6267 61.6158 56.2579 61.9983C55.889 62.3808 55.3818 62.5957 54.8477 62.5957C52.7117 62.5957 50.6435 61.7361 49.0981 60.206C47.5527 58.676 46.6567 56.6007 46.6073 54.4369C46.5804 52.999 46.9377 51.5894 47.6416 50.3575L16.3115 50.3575C15.2435 50.3575 14.229 50.7873 13.4913 51.5523C12.7536 52.3173 12.353 53.3549 12.3777 54.4369C12.4025 55.5188 12.8505 56.5564 13.6231 57.3215C14.3958 58.0865 15.43 58.5163 16.498 58.5163L42.6735 58.5163C43.2075 58.5163 43.7246 58.7312 44.1109 59.1137C44.4973 59.4962 44.7213 60.015 44.7336 60.556C44.746 61.097 44.5457 61.6158 44.1768 61.9983C43.808 62.3808 43.3007 62.5957 42.7667 62.5957L16.5912 62.5957C14.4552 62.5957 12.3869 61.7361 10.8416 60.206C9.29616 58.676 8.40019 56.6007 8.35074 54.4369C8.30129 52.273 9.1024 50.1978 10.5779 48.6677C12.0533 47.1376 14.0822 46.2781 16.2183 46.2781L52.4613 46.2781L51.529 5.48395L17.2995 5.48395C15.6974 5.48395 14.1757 6.12864 13.0692 7.2762C11.9626 8.42376 11.3617 9.98018 11.3988 11.6031L12.098 42.1986C12.1104 42.7396 11.9101 43.2584 11.5413 43.6409C11.1724 44.0235 10.6652 44.2383 10.1312 44.2383C9.59715 44.2383 9.0801 44.0235 8.69375 43.6409C8.3074 43.2584 8.08341 42.7396 8.07105 42.1986L7.37181 11.6031C7.30999 8.89825 8.31139 6.30421 10.1557 4.39162C12 2.47903 14.5362 1.40454 17.2062 1.40454L53.4493 1.40454C53.9833 1.40454 54.5003 1.61944 54.8867 2.00196C55.273 2.38448 55.497 2.90328 55.5094 3.44425L56.5349 48.3178C56.5473 48.8587 56.347 49.3775 55.9782 49.7601C55.6093 50.1426 55.1021 50.3575 54.568 50.3575C53.5 50.3575 52.4856 50.7873 51.7478 51.5523C51.0101 52.3173 50.6096 53.3549 50.6343 54.4369ZM21.746 23.8413C21.212 23.8413 20.695 23.6264 20.3086 23.2439C19.9223 22.8614 19.6983 22.3426 19.6859 21.8016L19.4528 11.6031C19.4405 11.0621 19.6407 10.5433 20.0096 10.1608C20.3785 9.77826 20.8857 9.56336 21.4197 9.56336L41.5547 9.56336C42.0887 9.56336 42.6058 9.77826 42.9921 10.1608C43.3785 10.5433 43.6025 11.0621 43.6148 11.6031L43.8479 21.8016C43.8603 22.3426 43.66 22.8614 43.2911 23.2439C42.9223 23.6264 42.415 23.8413 41.881 23.8413L21.746 23.8413ZM23.6663 19.7619H39.7743L39.6345 13.6428L23.5264 13.6428L23.6663 19.7619Z" fill="white"/>
</svg>
