<svg width="160" height="160" viewBox="0 0 160 160" fill="none" xmlns="http://www.w3.org/2000/svg">
<path fill-rule="evenodd" clip-rule="evenodd" d="M45.3223 70.4794C44.9154 71.471 44.6309 72.9207 45.4445 74.2913L47.337 77.4795C48.7919 79.9304 51.37 80.3377 52.4445 80.4115C53.731 80.4998 55.0088 80.2892 56.0658 80.0319C57.9004 79.5852 59.9533 78.7753 61.9859 77.7287C62.0947 76.9825 62.3048 76.3314 62.5095 75.8328C63.094 74.4083 64.0349 73.1578 64.9585 72.1448C66.7594 70.1696 69.3 68.225 72.1557 66.5766C72.1224 65.766 71.9089 64.8785 71.3761 63.9808L69.4835 60.7926C68.6699 59.422 67.2368 58.9368 66.1503 58.7837C65.028 58.6256 63.7864 58.7369 62.5736 58.9783C60.1207 59.4664 57.1948 60.6081 54.3097 62.2282C51.4245 63.8483 48.945 65.742 47.2839 67.5639C46.4625 68.4648 45.7427 69.455 45.3223 70.4794ZM67.2981 62.0196C68.3434 63.7805 64.7878 67.6802 59.3565 70.7301C53.9253 73.7799 48.6751 74.8248 47.6298 73.064C46.5846 71.3032 50.1401 67.4034 55.5714 64.3536C61.0026 61.3038 66.2529 60.2588 67.2981 62.0196Z" fill="currentColor"/>
<path fill-rule="evenodd" clip-rule="evenodd" d="M65.2303 76.889C64.8319 77.8596 64.5534 79.2786 65.3498 80.6203L66.3518 82.3082C66.6634 82.2858 66.9763 82.2665 67.2901 82.2502C71.3793 82.0382 75.3531 82.3628 78.5335 83.2139C79.4088 83.4481 80.3286 83.7496 81.2249 84.1458C81.7091 83.9027 82.1928 83.6455 82.6727 83.3761C85.0216 82.0571 87.1533 80.5138 88.6853 78.9738C89.427 78.2282 90.2359 77.2778 90.7886 76.1738C91.2501 75.2518 92.1569 72.9269 90.7328 70.5279L88.8803 67.4071C88.0839 66.0655 86.6811 65.5906 85.6177 65.4408C84.5191 65.286 83.3038 65.3949 82.1166 65.6312C79.7156 66.1091 76.8516 67.2266 74.0275 68.8124C71.2034 70.3982 68.7763 72.2518 67.1503 74.0352C66.3464 74.917 65.6418 75.8863 65.2303 76.889ZM86.7413 68.6083C87.7644 70.3318 84.2841 74.1491 78.9677 77.1344C73.6514 80.1197 68.5122 81.1425 67.4891 79.419C66.466 77.6954 69.9463 73.8781 75.2626 70.8928C80.579 67.9075 85.7181 66.8847 86.7413 68.6083Z" fill="currentColor"/>
<path fill-rule="evenodd" clip-rule="evenodd" d="M51.7458 93.0426C51.6453 91.2078 52.7239 89.8532 53.6815 89.0352C54.6707 88.1903 55.9513 87.5339 57.2887 87.0219C59.9933 85.9865 63.5837 85.2956 67.4459 85.0954C71.3081 84.8953 74.9537 85.2111 77.7562 85.9611C79.1419 86.3319 80.4869 86.8522 81.5629 87.5901C82.6044 88.3045 83.825 89.5399 83.9255 91.3747L84.1594 95.6426C84.3391 98.9234 82.0956 100.907 81.098 101.641C79.9036 102.519 78.5232 103.101 77.327 103.502C74.8562 104.329 71.7495 104.846 68.5372 105.012C65.3249 105.179 62.1794 104.986 59.6321 104.419C58.399 104.144 56.9627 103.708 55.6791 102.958C54.6071 102.332 52.1594 100.591 51.9797 97.3105L51.7458 93.0426ZM68.0695 96.4766C75.34 96.0997 81.1292 93.8834 81.0001 91.5263C80.8709 89.1692 74.8723 87.5639 67.6018 87.9407C60.3313 88.3176 54.5421 90.5339 54.6713 92.891C54.8004 95.2481 60.799 96.8534 68.0695 96.4766Z" fill="currentColor"/>

</svg>
