<svg width="64" height="64" viewBox="0 0 64 64" fill="none" xmlns="http://www.w3.org/2000/svg">
<path opacity="0.34" d="M59.9326 43.2183L7.58158 43.2183L8.18759 16.7021C8.19995 16.1612 8.42394 15.6424 8.81029 15.2598C9.19664 14.8773 9.71369 14.6624 10.2477 14.6624L54.5448 14.6624C55.0788 14.6624 55.586 14.8773 55.9549 15.2598C56.3237 15.6424 56.524 16.1612 56.5116 16.7021L56.0455 37.0992C56.0331 37.6401 56.2334 38.159 56.6023 38.5415C56.9711 38.924 57.4784 39.1389 58.0124 39.1389C58.5464 39.1389 59.0634 38.924 59.4498 38.5415C59.8361 38.159 60.0601 37.6401 60.0725 37.0992L60.5386 16.7021C60.5757 15.0792 59.9749 13.5228 58.8683 12.3753C57.7617 11.2277 56.24 10.583 54.638 10.583L10.3409 10.583C8.73889 10.583 7.18773 11.2277 6.02869 12.3753C4.86965 13.5228 4.19767 15.0792 4.16058 16.7021L3.55458 43.2183C3.02056 43.2183 2.50351 43.4332 2.11716 43.8157C1.73082 44.1982 1.50682 44.717 1.49446 45.258L1.44784 47.2977C1.41075 48.9206 2.01159 50.477 3.11818 51.6246C4.22477 52.7721 5.74646 53.4168 7.3485 53.4168L55.6726 53.4168C57.2746 53.4168 58.8258 52.7721 59.9848 51.6246C61.1438 50.477 61.8158 48.9206 61.8529 47.2977L61.8995 45.258C61.9119 44.717 61.7116 44.1982 61.3427 43.8157C60.9739 43.4332 60.4667 43.2183 59.9326 43.2183ZM55.7658 49.3374L7.44174 49.3374C6.90772 49.3374 6.40049 49.1225 6.03163 48.74C5.66277 48.3575 5.46249 47.8387 5.47485 47.2977L57.8259 47.2977C57.8135 47.8387 57.5896 48.3575 57.2032 48.74C56.8169 49.1225 56.2998 49.3374 55.7658 49.3374ZM34.9119 20.8835C35.1708 20.958 35.411 21.085 35.6181 21.2569C35.8253 21.4287 35.9951 21.642 36.1174 21.8838C36.2397 22.1256 36.312 22.3911 36.3299 22.6643C36.3479 22.9376 36.3111 23.2129 36.2219 23.4739L31.9152 35.7122C31.7654 36.1344 31.4844 36.4985 31.1151 36.7489C30.7458 36.9994 30.3085 37.1224 29.87 37.0992C29.6519 37.0936 29.436 37.0594 29.228 36.9972C28.9783 36.912 28.7489 36.7774 28.5529 36.6009C28.3569 36.4245 28.1981 36.2098 28.0858 35.969C27.9734 35.7283 27.9096 35.4664 27.8981 35.1983C27.8866 34.9302 27.9276 34.6612 28.0187 34.4068L32.3254 22.1685C32.4152 21.9137 32.5536 21.6782 32.7324 21.4755C32.9112 21.2729 33.1269 21.1071 33.3673 20.9877C33.6076 20.8683 33.8678 20.7976 34.1329 20.7797C34.398 20.7618 34.6627 20.7971 34.9119 20.8835ZM25.8219 23.9227L22.5058 28.9404L25.5916 33.9988C25.8689 34.4535 25.9542 35.0051 25.8289 35.5327C25.7036 36.0604 25.3779 36.521 24.9233 36.8136C24.5904 37.0114 24.211 37.1104 23.8294 37.0992C23.4926 37.0986 23.1632 37.0124 22.8714 36.8485C22.5797 36.6846 22.3349 36.4482 22.1595 36.1609L18.3932 30.0418C18.1926 29.7131 18.0906 29.3309 18.0996 28.9404C18.1085 28.5499 18.2279 28.1676 18.4435 27.8389L22.4896 21.7198C22.8006 21.296 23.2576 21.0055 23.7664 20.9081C24.2751 20.8107 24.7969 20.9138 25.2241 21.1963C25.6513 21.4787 25.9515 21.9189 26.0627 22.4261C26.1739 22.9334 26.0878 23.469 25.8219 23.9227ZM38.4378 33.9988L41.7549 28.9404L38.6681 23.9227C38.423 23.469 38.3613 22.9334 38.4957 22.4261C38.6301 21.9189 38.9504 21.4787 39.3905 21.1963C39.8307 20.9138 40.3571 20.8107 40.8614 20.9081C41.3657 21.0055 41.8094 21.296 42.1011 21.7198L45.8674 27.8389C46.0681 28.1676 46.17 28.5499 46.1611 28.9404C46.1522 29.3309 46.0328 29.7131 45.8171 30.0418L41.7912 36.1609C41.6008 36.4511 41.342 36.6893 41.039 36.8534C40.7359 37.0175 40.3985 37.102 40.0583 37.0992C39.6971 37.0986 39.345 36.9996 39.0389 36.8126C38.7328 36.6255 38.4839 36.3574 38.3183 36.0362C38.1527 35.715 38.0765 35.3526 38.0977 34.987C38.1189 34.6214 38.2367 34.266 38.4387 33.958L38.4378 33.9988Z" fill="white"/>
</svg>
