<svg width="80" height="80" viewBox="0 0 80 80" fill="none" xmlns="http://www.w3.org/2000/svg">
<path d="M44.7684 31.141C44.7684 32.5738 42.3884 34.7595 37.1184 36.1195C34.2284 36.921 30.8284 37.3338 27.2827 37.3338C23.7613 37.3338 20.3613 36.921 17.4956 36.1438C12.177 34.7595 9.82129 32.6224 9.82129 31.141C9.82129 28.6152 16.6213 24.9481 27.2827 24.9481C37.9684 24.9481 44.7684 28.6152 44.7684 31.141Z" fill="white"/>
<path d="M38.5126 60.6881C35.149 61.5721 31.2681 62.0408 27.2853 62.0408C23.3194 62.0408 19.4483 61.5745 16.0871 60.6905C12.6799 59.7895 9.97443 58.5024 8 56.9481V63.923C8 68.343 16.6384 71.9348 27.2877 71.9348C37.9613 71.9348 46.5997 68.343 46.5997 63.923V56.9481C44.6253 58.5024 41.9199 59.7895 38.5126 60.6881Z" fill="white"/>
<path d="M38.0293 42.3796C34.9134 43.2417 31.1759 43.708 27.2829 43.708C23.4311 43.708 19.7179 43.2514 16.5413 42.3917C12.6264 41.3717 9.72671 39.849 8 38.0106V47.4018C8 50.2651 11.5919 52.752 17.0149 54.1824C19.9777 54.962 23.5186 55.4137 27.2853 55.4137C31.0763 55.4137 34.6171 54.962 37.5824 54.1824C43.0079 52.752 46.5973 50.2384 46.5973 47.4018V37.9571C44.856 39.8198 41.9271 41.3741 38.0293 42.3796Z" fill="white"/>
<path d="M63.2535 18.2413C68.0603 17.0009 70.2311 15.0072 70.2311 13.7003C70.2311 11.3966 64.0288 8.05176 54.2822 8.05176C44.5578 8.05176 38.3555 11.3966 38.3555 13.7003C38.3555 15.0516 40.5042 17.0009 45.3553 18.2635C47.9691 18.9723 51.0703 19.3489 54.2822 19.3489C57.5163 19.3489 60.6175 18.9723 63.2535 18.2413Z" fill="white"/>
<path d="M54.2846 56.7256C57.9174 56.7256 61.4571 56.2981 64.5251 55.4918C67.6329 54.6722 70.1006 53.4981 71.9015 52.0805V58.4423C71.9015 62.4738 64.0223 65.75 54.2868 65.75C53.6634 65.75 53.0476 65.7365 52.441 65.7102C52.6119 64.9317 52.702 64.1228 52.702 63.293V56.6983C53.2269 56.7164 53.7548 56.7256 54.2846 56.7256Z" fill="white"/>
<path d="M52.702 50.8795C53.224 50.8989 53.7526 50.9088 54.2868 50.9088C64.0223 50.9088 71.9015 47.6327 71.9015 43.6011V37.2393C70.1006 38.657 67.6329 39.831 64.5251 40.6506C61.4571 41.4569 57.9174 41.8844 54.2846 41.8844C53.7548 41.8844 53.2269 41.8753 52.702 41.8572V50.8795Z" fill="white"/>
<path d="M52.702 35.8104C53.2238 35.8298 53.7517 35.8397 54.2846 35.8397C57.7424 35.8397 60.972 35.4277 63.6767 34.7167C68.6253 33.412 71.8992 31.1193 71.8992 28.5321V19.9174C70.311 21.6164 67.6396 23.0341 64.0843 23.9512C61.2423 24.7375 57.8332 25.1628 54.2824 25.1628C53.325 25.1628 52.3771 25.1319 51.4458 25.0711C52.2485 26.6169 52.702 28.373 52.702 30.2351V35.8104Z" fill="white"/>
</svg>
