<svg width="81" height="80" viewBox="0 0 81 80" fill="none" xmlns="http://www.w3.org/2000/svg">
<path fill-rule="evenodd" clip-rule="evenodd" d="M40.5 6.39746C25.2884 6.39746 12.9569 18.7289 12.9569 33.9406C12.9566 34.1709 13.0285 34.4032 13.1772 34.6016L29.4828 56.324V73.6027H51.5173V56.324L67.8229 34.6016C67.9716 34.4032 68.0434 34.1709 68.0432 33.9406C68.0432 18.7289 55.7117 6.39746 40.5 6.39746ZM40.5 26.2285C36.2408 26.2285 32.788 29.6813 32.788 33.9406H32.8098C34.1896 40.8394 37.1951 55.9751 37.1951 55.9751H43.8049C43.8049 55.9751 46.8105 40.8394 48.1903 33.9406H48.2121C48.2121 29.6813 44.7593 26.2285 40.5 26.2285ZM31.9617 55.9751L15.1604 33.5447C15.1604 29.2854 18.6132 26.2285 22.8724 26.2285C27.1317 26.2285 30.5845 29.6813 30.5845 33.9406C30.5845 33.9406 33.5898 49.0762 34.9696 55.9751H31.9617ZM49.0384 55.9751L65.8397 33.5447C65.8397 29.2854 62.3869 26.2285 58.1276 26.2285C53.8684 26.2285 50.4156 29.6813 50.4156 33.9406C50.4156 33.9406 47.4103 49.0762 46.0305 55.9751H49.0384Z" fill="white"/>
</svg>
