<svg width="64" height="64" viewBox="0 0 64 64" fill="none" xmlns="http://www.w3.org/2000/svg">
<path opacity="0.34" d="M33.3143 1.40454L29.2873 1.40454C27.6852 1.40454 26.1635 2.04923 25.0569 3.19679C23.9504 4.34434 23.3495 5.90077 23.3866 7.52366L24.3189 48.3178C24.3305 48.6148 24.4059 48.9071 24.5399 49.1744L30.8601 61.4127C31.0284 61.7636 31.2906 62.0611 31.6163 62.2706C31.9419 62.48 32.3175 62.5928 32.6992 62.5957C33.071 62.5946 33.4329 62.4891 33.7447 62.2911C34.0564 62.0931 34.306 61.8102 34.4656 61.4739L40.3271 49.2356C40.3765 49.1122 40.4074 48.9816 40.4189 48.8481C40.4348 48.7128 40.4317 48.5754 40.4096 48.4401L39.8474 23.8413C39.8351 23.3003 39.6111 22.7815 39.2247 22.399C38.8384 22.0165 38.3213 21.8016 37.7873 21.8016C37.2533 21.8016 36.7461 22.0165 36.3772 22.399C36.0083 22.7815 35.808 23.3003 35.8204 23.8413L36.3332 46.2781H28.2993L27.6467 17.7222H37.7142C38.2482 17.7222 38.7554 17.5073 39.1243 17.1248C39.4932 16.7422 39.6935 16.2234 39.6811 15.6825L39.4946 7.52366C39.4575 5.90077 38.7856 4.34434 37.6265 3.19679C36.4675 2.04923 34.9163 1.40454 33.3143 1.40454ZM32.5482 55.987L29.6208 50.3575H35.178L32.5482 55.987ZM35.6075 13.6428L27.5535 13.6428L27.4136 7.52366C27.4013 6.98269 27.6015 6.46389 27.9704 6.08137C28.3393 5.69885 28.8465 5.48395 29.3805 5.48395H33.4075C33.9415 5.48395 34.4586 5.69885 34.8449 6.08137C35.2313 6.46389 35.4553 6.98269 35.4676 7.52366L35.6075 13.6428Z" fill="white"/>
</svg>
