<svg width="24" height="24" viewBox="0 0 24 24" fill="none" xmlns="http://www.w3.org/2000/svg">
<path fill-rule="evenodd" clip-rule="evenodd" d="M11.1726 7.2356C10.0964 6.46022 9.28246 6.34818 8.82105 6.61457C8.35964 6.88096 8.04971 7.64187 8.18312 8.96157C8.1855 8.9852 8.18803 9.00894 8.1907 9.0328C8.75092 8.87266 9.35995 8.74754 10.0036 8.66271C10.3989 8.14773 10.8117 7.68288 11.2305 7.2778C11.2112 7.26356 11.1919 7.24949 11.1726 7.2356ZM11.9997 6.60622C11.9188 6.54312 11.8379 6.48245 11.7571 6.42425C10.6253 5.60874 9.33552 5.16284 8.32105 5.74855C7.30658 6.33425 7.04788 7.67414 7.18819 9.06214C7.1982 9.16118 7.2103 9.26157 7.22447 9.3632C7.12944 9.40172 7.03651 9.44141 6.94581 9.48223C5.67361 10.0547 4.64258 10.9487 4.64258 12.1201C4.64258 13.2915 5.67361 14.1855 6.94581 14.758C7.03654 14.7988 7.12948 14.8385 7.22455 14.8771C7.21038 14.9787 7.19828 15.079 7.18827 15.178C7.04796 16.566 7.30667 17.9059 8.32114 18.4916C9.3356 19.0773 10.6253 18.6314 11.7572 17.8159C11.838 17.7577 11.9188 17.6971 11.9997 17.634C12.0806 17.697 12.1614 17.7576 12.2421 17.8158C13.374 18.6313 14.6637 19.0772 15.6782 18.4915C16.6927 17.9058 16.9514 16.5659 16.8111 15.1779C16.8011 15.0789 16.789 14.9786 16.7748 14.8771C16.8699 14.8386 16.9629 14.7989 17.0536 14.758C18.3258 14.1855 19.3569 13.2915 19.3569 12.1201C19.3569 10.9487 18.3258 10.0547 17.0536 9.48223C16.9629 9.4414 16.8699 9.4017 16.7749 9.36317C16.789 9.26159 16.8011 9.16125 16.8111 9.06227C16.9515 7.67427 16.6927 6.33437 15.6783 5.74867C14.6638 5.16297 13.3741 5.60887 12.2422 6.42438C12.1615 6.48253 12.0806 6.54317 11.9997 6.60622ZM11.9997 7.92575C11.7988 8.11604 11.5977 8.32309 11.3981 8.54575C11.5967 8.53823 11.7973 8.5344 11.9997 8.5344C12.2021 8.5344 12.4028 8.53823 12.6013 8.54575C12.4018 8.32309 12.2006 8.11604 11.9997 7.92575ZM9.20504 9.81192C8.91241 9.8734 8.63249 9.94409 8.36722 10.023C8.43157 10.2921 8.51031 10.5699 8.60338 10.854C8.69616 10.6783 8.79319 10.5026 8.89439 10.3273C8.99558 10.152 9.09923 9.98014 9.20504 9.81192ZM9.09674 12.1202C9.28892 11.6937 9.51022 11.2606 9.76041 10.8273C10.0106 10.3939 10.275 9.98574 10.5482 9.60609C11.0136 9.5593 11.4993 9.5344 11.9997 9.5344C12.5001 9.5344 12.9858 9.5593 13.4512 9.60608C13.7244 9.98571 13.9888 10.3939 14.2389 10.8272C14.4891 11.2606 14.7104 11.6937 14.9026 12.1202C14.7105 12.5466 14.4892 12.9797 14.239 13.413C13.9888 13.8463 13.7244 14.2545 13.4512 14.6341C12.9858 14.6809 12.5001 14.7058 11.9997 14.7058C11.4993 14.7058 11.0136 14.6809 10.5482 14.6341C10.275 14.2545 10.0105 13.8463 9.76033 13.4129C9.51017 12.9796 9.28891 12.5466 9.09674 12.1202ZM8.00742 12.1202C7.75906 11.5204 7.5629 10.9304 7.42147 10.3652C7.39954 10.3748 7.37777 10.3844 7.35617 10.3941C6.14657 10.9385 5.64258 11.5873 5.64258 12.1201C5.64258 12.6529 6.14657 13.3018 7.35617 13.8461C7.37779 13.8558 7.39958 13.8655 7.42153 13.8751C7.56295 13.3099 7.75908 12.72 8.00742 12.1202ZM8.36729 14.2173C8.43162 13.9482 8.51035 13.6705 8.6034 13.3863C8.69615 13.562 8.79314 13.7377 8.8943 13.9129C8.99551 14.0882 9.09917 14.2601 9.205 14.4283C8.9124 14.3668 8.63253 14.2962 8.36729 14.2173ZM8.19078 15.2075C8.18811 15.2313 8.18559 15.255 8.1832 15.2786C8.04979 16.5983 8.35973 17.3592 8.82114 17.6256C9.28254 17.892 10.0965 17.7799 11.1727 17.0046C11.1919 16.9907 11.2112 16.9766 11.2305 16.9624C10.8117 16.5574 10.3988 16.0925 10.0036 15.5775C9.35996 15.4927 8.75097 15.3676 8.19078 15.2075ZM12.769 16.9624C12.7882 16.9766 12.8075 16.9906 12.8267 17.0044C13.9029 17.7798 14.7168 17.8919 15.1782 17.6255C15.6396 17.3591 15.9495 16.5982 15.8161 15.2785C15.8138 15.2549 15.8112 15.2313 15.8086 15.2075C15.2484 15.3676 14.6394 15.4927 13.9959 15.5775C13.6006 16.0925 13.1878 16.5573 12.769 16.9624ZM12.6013 15.6945C12.4018 15.9171 12.2006 16.1242 11.9997 16.3145C11.7988 16.1242 11.5976 15.9171 11.3981 15.6945C11.5967 15.702 11.7973 15.7058 11.9997 15.7058C12.2021 15.7058 12.4028 15.702 12.6013 15.6945ZM14.7944 14.4283C15.087 14.3668 15.3669 14.2962 15.6321 14.2173C15.5678 13.9482 15.489 13.6705 15.396 13.3864C15.3032 13.5621 15.2062 13.7377 15.105 13.913C15.0038 14.0883 14.9002 14.2601 14.7944 14.4283ZM15.992 12.1202C16.2403 12.72 16.4364 13.3099 16.5778 13.8751C16.5998 13.8655 16.6216 13.8558 16.6433 13.8461C17.8529 13.3018 18.3569 12.6529 18.3569 12.1201C18.3569 11.5873 17.8529 10.9385 16.6433 10.3941C16.6216 10.3844 16.5999 10.3748 16.5779 10.3652C16.4365 10.9304 16.2403 11.5204 15.992 12.1202ZM15.8086 9.03277C15.2484 8.87265 14.6394 8.74753 13.9958 8.66271C13.6006 8.14774 13.1877 7.6829 12.769 7.27782C12.7883 7.26361 12.8075 7.24958 12.8267 7.23573C13.9029 6.46034 14.7169 6.3483 15.1783 6.6147C15.6397 6.88109 15.9496 7.64199 15.8162 8.96169C15.8138 8.98528 15.8113 9.00897 15.8086 9.03277ZM15.6321 10.0229C15.5678 10.2921 15.4891 10.5698 15.396 10.854C15.3032 10.6782 15.2062 10.5025 15.1049 10.3272C15.0038 10.1519 14.9002 9.9801 14.7944 9.81191C15.087 9.87339 15.3669 9.94408 15.6321 10.0229ZM13.371 12.12C13.371 12.8774 12.757 13.4914 11.9996 13.4914C11.2421 13.4914 10.6281 12.8774 10.6281 12.12C10.6281 11.3626 11.2421 10.7486 11.9996 10.7486C12.757 10.7486 13.371 11.3626 13.371 12.12Z" fill="white"/>
</svg>
