<svg width="64" height="64" viewBox="0 0 64 64" fill="none" xmlns="http://www.w3.org/2000/svg">
<path opacity="0.34" d="M61.8418 61.5271C61.6918 61.9021 61.437 62.2231 61.1096 62.4497C60.7821 62.6763 60.3967 62.7982 60.0018 62.8003H4.00183C3.4714 62.8003 2.96269 62.5839 2.58762 62.1988C2.21254 61.8137 2.00183 61.2914 2.00183 60.7468V56.6398C2.00183 56.0952 2.21254 55.5729 2.58762 55.1878C2.96269 54.8027 3.4714 54.5864 4.00183 54.5864C4.53226 54.5864 5.04097 54.8027 5.41604 55.1878C5.79112 55.5729 6.00183 56.0952 6.00183 56.6398V58.6933H55.1818L6.00183 8.19834V17.6238H8.00183C8.53226 17.6238 9.04097 17.8401 9.41604 18.2252C9.79112 18.6103 10.0018 19.1327 10.0018 19.6773C10.0018 20.2219 9.79112 20.7442 9.41604 21.1293C9.04097 21.5144 8.53226 21.7307 8.00183 21.7307H6.00183V31.9981H8.00183C8.53226 31.9981 9.04097 32.2145 9.41604 32.5996C9.79112 32.9847 10.0018 33.507 10.0018 34.0516C10.0018 34.5962 9.79112 35.1185 9.41604 35.5036C9.04097 35.8887 8.53226 36.1051 8.00183 36.1051H6.00183V46.3725H8.00183C8.53226 46.3725 9.04097 46.5888 9.41604 46.9739C9.79112 47.359 10.0018 47.8813 10.0018 48.4259C10.0018 48.9705 9.79112 49.4929 9.41604 49.878C9.04097 50.2631 8.53226 50.4794 8.00183 50.4794H4.00183C3.4714 50.4794 2.96269 50.2631 2.58762 49.878C2.21254 49.4929 2.00183 48.9705 2.00183 48.4259V3.24946C2.0038 2.84405 2.12261 2.44831 2.34327 2.11212C2.56394 1.77592 2.87659 1.51431 3.24183 1.36026C3.60605 1.20301 4.00748 1.16004 4.39546 1.23679C4.78344 1.31354 5.14058 1.50656 5.42183 1.79149L61.4218 59.2888C61.6993 59.5776 61.8873 59.9443 61.9621 60.3426C62.0368 60.741 61.995 61.1531 61.8418 61.5271ZM16.0018 50.4794C15.4714 50.4794 14.9627 50.2631 14.5876 49.878C14.2125 49.4929 14.0018 48.9705 14.0018 48.4259V31.9981C14.0038 31.5927 14.1226 31.197 14.3433 30.8608C14.5639 30.5246 14.8766 30.263 15.2418 30.1089C15.6061 29.9517 16.0075 29.9087 16.3955 29.9855C16.7834 30.0622 17.1406 30.2552 17.4218 30.5402L33.4218 46.968C33.6993 47.2567 33.8873 47.6234 33.9621 48.0218C34.0368 48.4201 33.995 48.8323 33.8418 49.2063C33.6918 49.5813 33.437 49.9023 33.1096 50.1288C32.7821 50.3554 32.3967 50.4774 32.0018 50.4794H16.0018ZM18.0018 46.3725H27.1818L18.0018 36.947V46.3725Z" fill="white"/>
</svg>
