<svg width="267" height="28" viewBox="0 0 267 28" fill="none" xmlns="http://www.w3.org/2000/svg">
<g clip-path="url(#clip0_11856_538562)">
<mask id="mask0_11856_538562" style="mask-type:luminance" maskUnits="userSpaceOnUse" x="0" y="0" width="36" height="28">
<path d="M35.0306 0H0V28H35.0306V0Z" fill="white"/>
</mask>
<g mask="url(#mask0_11856_538562)">
<path d="M0 5.95V22.05C0 25.3361 2.66624 28 5.95521 28H29.0754C32.3644 28 35.0306 25.3361 35.0306 22.05V5.95C35.0306 2.66391 32.3644 0 29.0754 0H5.95521C2.66624 0 0 2.66391 0 5.95Z" fill="#111111"/>
<path d="M0 5.95V22.05C0 25.3361 2.66624 28 5.95521 28H29.0754C32.3644 28 35.0306 25.3361 35.0306 22.05V5.95C35.0306 2.66391 32.3644 0 29.0754 0H5.95521C2.66624 0 0 2.66391 0 5.95Z" fill="url(#paint0_linear_11856_538562)"/>
<path d="M8.7574 7C8.7574 6.0335 7.97321 5.25 7.00586 5.25C6.03852 5.25 5.25433 6.0335 5.25433 7C5.25433 7.9665 6.03852 8.75 7.00586 8.75C7.97321 8.75 8.7574 7.9665 8.7574 7Z" fill="url(#paint1_linear_11856_538562)"/>
<path d="M8.7574 7C8.7574 6.0335 7.97321 5.25 7.00586 5.25C6.03852 5.25 5.25433 6.0335 5.25433 7C5.25433 7.9665 6.03852 8.75 7.00586 8.75C7.97321 8.75 8.7574 7.9665 8.7574 7Z" fill="url(#paint2_linear_11856_538562)"/>
<path d="M8.7574 7C8.7574 6.0335 7.97321 5.25 7.00586 5.25C6.03852 5.25 5.25433 6.0335 5.25433 7C5.25433 7.9665 6.03852 8.75 7.00586 8.75C7.97321 8.75 8.7574 7.9665 8.7574 7Z" fill="url(#paint3_linear_11856_538562)"/>
<path d="M8.7574 20.9887C8.7574 20.0223 7.97321 19.2388 7.00586 19.2388C6.03852 19.2388 5.25433 20.0223 5.25433 20.9887C5.25433 21.9553 6.03852 22.7388 7.00586 22.7388C7.97321 22.7388 8.7574 21.9553 8.7574 20.9887Z" fill="url(#paint4_linear_11856_538562)"/>
<path d="M29.776 14C29.776 13.0335 28.9917 12.25 28.0244 12.25C27.0571 12.25 26.2729 13.0335 26.2729 14C26.2729 14.9664 27.0571 15.75 28.0244 15.75C28.9917 15.75 29.776 14.9664 29.776 14Z" fill="url(#paint5_linear_11856_538562)"/>
<path d="M29.776 14C29.776 13.0335 28.9917 12.25 28.0244 12.25C27.0571 12.25 26.2729 13.0335 26.2729 14C26.2729 14.9664 27.0571 15.75 28.0244 15.75C28.9917 15.75 29.776 14.9664 29.776 14Z" fill="url(#paint6_linear_11856_538562)"/>
<path d="M28.0243 5.25H14.0121C13.0448 5.25 12.2606 6.0335 12.2606 7C12.2606 7.9665 13.0448 8.75 14.0121 8.75H28.0243C28.9917 8.75 29.7759 7.9665 29.7759 7C29.7759 6.0335 28.9917 5.25 28.0243 5.25Z" fill="url(#paint7_linear_11856_538562)"/>
<path d="M28.0243 19.2388H14.0121C13.0448 19.2388 12.2606 20.0223 12.2606 20.9887C12.2606 21.9553 13.0448 22.7388 14.0121 22.7388H28.0243C28.9917 22.7388 29.7759 21.9553 29.7759 20.9887C29.7759 20.0223 28.9917 19.2388 28.0243 19.2388Z" fill="url(#paint8_linear_11856_538562)"/>
<path d="M21.0181 12.25H7.00586C6.03852 12.25 5.25433 13.0335 5.25433 14C5.25433 14.9664 6.03852 15.75 7.00586 15.75H21.0181C21.9854 15.75 22.7696 14.9664 22.7696 14C22.7696 13.0335 21.9854 12.25 21.0181 12.25Z" fill="url(#paint9_linear_11856_538562)"/>
</g>
<path d="M49.65 23.2816C53.0633 23.2816 55.4691 21.3413 55.4691 18.371C55.4931 15.8085 53.9473 14.3228 51.3687 13.3889L49.6007 12.7421C47.8088 12.0954 46.9489 11.5446 46.9489 10.2992C46.9489 9.05361 48.2256 8.33533 49.6993 8.33533C51.0744 8.33533 52.1301 8.88604 53.0141 9.91602L55.003 8.02367C53.7263 6.51454 51.8851 5.7002 49.7244 5.7002C46.4828 5.7002 44.0531 7.52098 44.0531 10.4912C44.0531 12.8147 45.4031 14.2993 48.1775 15.2823L50.0931 15.9526C51.7626 16.5513 52.5732 17.3176 52.5732 18.5396C52.5732 19.8086 51.395 20.6475 49.7495 20.6475C48.055 20.6475 46.6065 19.8332 45.6985 18.4681L43.4393 20.2164C44.4688 22.0596 46.8505 23.2816 49.65 23.2816ZM63.2879 23.2335C65.8665 23.2335 67.781 22.1791 68.886 20.4554L66.8238 19.0178C66.1608 20.0722 65.0559 20.8385 63.3131 20.8385C61.2509 20.8385 59.6547 19.5696 59.5322 17.5812H69.1814C69.2054 17.198 69.2054 16.9824 69.2054 16.7189C69.2054 12.8628 66.5295 10.7783 63.2879 10.7783C59.5562 10.7783 56.8792 13.485 56.8792 17.006C56.8792 20.6699 59.5552 23.2335 63.2879 23.2335ZM59.6536 15.6644C60.0464 13.8917 61.5933 13.0057 63.1894 13.0057C64.7604 13.0057 66.1848 13.9396 66.4791 15.6644H59.6536ZM83.2361 28.0001V11.0174H80.535V12.6226C79.8479 11.6642 78.3743 10.7783 76.6063 10.7783C73.2423 10.7783 70.6889 13.581 70.6889 17.006C70.6889 20.4309 73.2423 23.2335 76.6063 23.2335C78.3743 23.2335 79.8479 22.3477 80.535 21.3893V28.0001H83.2361ZM77.0976 20.8375C74.9369 20.8375 73.4393 19.1608 73.4393 17.0049C73.4393 14.849 74.9369 13.1722 77.0976 13.1722C79.2582 13.1722 80.756 14.849 80.756 17.0049C80.756 19.1608 79.2582 20.8375 77.0976 20.8375ZM90.2247 23.2335C91.7957 23.2335 93.097 22.5867 93.81 21.3648V22.9934H96.5107V11.0174H93.81V16.9099C93.81 19.497 92.5822 20.8385 90.8138 20.8385C89.2436 20.8385 88.3593 19.6646 88.3593 17.7488V11.0174H85.6582V18.1799C85.6582 21.2452 87.4009 23.2335 90.2247 23.2335ZM104.958 23.2335C107.537 23.2335 109.451 22.1791 110.556 20.4554L108.494 19.0178C107.83 20.0722 106.725 20.8385 104.983 20.8385C102.921 20.8385 101.325 19.5696 101.202 17.5812H110.851C110.875 17.198 110.875 16.9824 110.875 16.7189C110.875 12.8628 108.199 10.7783 104.958 10.7783C101.226 10.7783 98.5489 13.485 98.5489 17.006C98.5489 20.6699 101.225 23.2335 104.958 23.2335ZM101.323 15.6644C101.716 13.8917 103.263 13.0057 104.859 13.0057C106.43 13.0057 107.854 13.9396 108.149 15.6644H101.323ZM112.914 22.9934H115.616V17.101C115.616 14.5138 116.99 13.1722 118.783 13.1722C120.354 13.1722 121.336 14.2982 121.336 16.214V22.9924H124.037V15.7828C124.037 12.741 122.195 10.7762 119.347 10.7762C117.751 10.7762 116.376 11.423 115.616 12.6451V11.0174H112.914V22.9934ZM132.353 23.2335C134.907 23.2335 137.019 21.9401 138.074 19.9282L135.717 18.6827C135.127 19.9047 133.924 20.7905 132.353 20.7905C130.168 20.7905 128.621 19.1373 128.621 17.006C128.621 14.8746 130.168 13.2213 132.353 13.2213C133.924 13.2213 135.127 14.1072 135.717 15.3292L138.074 14.0837C137.019 12.0719 134.907 10.7783 132.353 10.7783C128.672 10.7783 125.872 13.4615 125.872 17.006C125.872 20.5504 128.672 23.2335 132.353 23.2335ZM145.356 23.2335C147.935 23.2335 149.849 22.1791 150.954 20.4554L148.892 19.0178C148.229 20.0722 147.124 20.8385 145.381 20.8385C143.318 20.8385 141.723 19.5696 141.599 17.5812H151.25C151.273 17.198 151.273 16.9824 151.273 16.7189C151.273 12.8628 148.598 10.7783 145.356 10.7783C141.623 10.7783 138.947 13.485 138.947 17.006C138.947 20.6699 141.623 23.2335 145.356 23.2335ZM141.721 15.6644C142.114 13.8917 143.661 13.0057 145.257 13.0057C146.828 13.0057 148.253 13.9396 148.547 15.6644H141.721Z" fill="white"/>
</g>
<path d="M159.371 22.5V5.38544H165.276C166.771 5.38544 167.992 5.84344 168.94 6.75943C169.905 7.67542 170.387 8.79228 170.387 10.11C170.387 11.5242 169.856 12.625 168.796 13.4124C170.628 14.1677 171.544 15.5256 171.544 17.4862C171.544 18.9164 171.021 20.1136 169.977 21.0778C168.948 22.0259 167.631 22.5 166.024 22.5H159.371ZM162.191 19.9208H165.951C166.851 19.9208 167.55 19.6958 168.048 19.2458C168.547 18.7959 168.796 18.2013 168.796 17.4621C168.796 16.7389 168.547 16.1523 168.048 15.7024C167.55 15.2364 166.851 15.0033 165.951 15.0033H162.191V19.9208ZM162.191 12.5928H165.132C165.887 12.5928 166.49 12.3759 166.94 11.942C167.39 11.5081 167.615 10.9537 167.615 10.2788C167.615 9.63596 167.39 9.08958 166.94 8.63962C166.49 8.18966 165.887 7.96468 165.132 7.96468H162.191V12.5928ZM173.47 22.5V4.42124H176.122V22.5H173.47ZM183.277 22.7411C181.895 22.7411 180.802 22.2831 179.998 21.3671C179.195 20.435 178.793 19.1976 178.793 17.6549V10.4475H181.445V17.221C181.445 18.1852 181.654 18.9485 182.071 19.511C182.489 20.0574 183.084 20.3305 183.855 20.3305C184.755 20.3305 185.47 19.9931 186 19.3181C186.531 18.6271 186.796 17.6469 186.796 16.3773V10.4475H189.447V22.5H186.796V20.8609C186.089 22.1143 184.916 22.7411 183.277 22.7411ZM197.74 22.7411C195.908 22.7411 194.397 22.1545 193.208 20.9814C192.035 19.8083 191.448 18.3057 191.448 16.4737C191.448 14.69 192.043 13.2035 193.232 12.0143C194.421 10.8091 195.924 10.2064 197.74 10.2064C199.411 10.2064 200.793 10.7368 201.886 11.7974C202.995 12.858 203.549 14.3204 203.549 16.1845C203.549 16.5059 203.541 16.7951 203.525 17.0523H194.052C194.116 18.0325 194.494 18.828 195.185 19.4387C195.876 20.0333 196.735 20.3305 197.764 20.3305C199.307 20.3305 200.456 19.7199 201.211 18.4986L203.236 19.9449C202.079 21.809 200.247 22.7411 197.74 22.7411ZM194.172 15.1239H200.873C200.729 14.2882 200.351 13.6374 199.741 13.1714C199.146 12.6893 198.447 12.4482 197.643 12.4482C196.808 12.4482 196.06 12.6812 195.402 13.1473C194.759 13.6133 194.349 14.2722 194.172 15.1239ZM208.203 27.5379H205.552V10.4475H208.203V12.0625C208.573 11.5483 209.103 11.1144 209.794 10.7609C210.501 10.3912 211.265 10.2064 212.084 10.2064C213.723 10.2064 215.097 10.8171 216.206 12.0384C217.331 13.2597 217.893 14.7382 217.893 16.4737C217.893 18.2093 217.331 19.6877 216.206 20.9091C215.097 22.1304 213.723 22.7411 212.084 22.7411C211.265 22.7411 210.501 22.5643 209.794 22.2107C209.103 21.8411 208.573 21.3992 208.203 20.885V27.5379ZM211.602 20.3305C212.647 20.3305 213.506 19.9609 214.181 19.2217C214.856 18.4825 215.194 17.5665 215.194 16.4737C215.194 15.381 214.856 14.465 214.181 13.7258C213.506 12.9866 212.647 12.6169 211.602 12.6169C210.541 12.6169 209.674 12.9866 208.999 13.7258C208.324 14.465 207.986 15.381 207.986 16.4737C207.986 17.5665 208.324 18.4825 208.999 19.2217C209.674 19.9609 210.541 20.3305 211.602 20.3305ZM219.871 22.5V10.4475H222.522V12.5928C222.747 11.9179 223.157 11.3715 223.752 10.9537C224.362 10.5359 225.013 10.327 225.704 10.327C226.122 10.327 226.467 10.3591 226.741 10.4234V13.1473C226.355 13.0026 225.913 12.9303 225.415 12.9303C224.611 12.9303 223.928 13.2597 223.366 13.9186C222.803 14.5614 222.522 15.4613 222.522 16.6184V22.5H219.871ZM229.63 7.82005C229.148 7.82005 228.73 7.65131 228.377 7.31384C228.023 6.9603 227.847 6.53445 227.847 6.03628C227.847 5.55417 228.023 5.14439 228.377 4.80692C228.73 4.45338 229.148 4.27661 229.63 4.27661C230.129 4.27661 230.546 4.45338 230.884 4.80692C231.221 5.14439 231.39 5.55417 231.39 6.03628C231.39 6.53445 231.221 6.9603 230.884 7.31384C230.546 7.65131 230.129 7.82005 229.63 7.82005ZM228.305 22.5V10.4475H230.956V22.5H228.305ZM233.796 22.5V10.4475H236.448V12.0866C237.203 10.8332 238.424 10.2064 240.112 10.2064C241.51 10.2064 242.626 10.6644 243.462 11.5804C244.298 12.4964 244.716 13.7177 244.716 15.2444V22.5H242.064V15.6783C242.064 14.7141 241.839 13.9668 241.389 13.4365C240.939 12.8901 240.328 12.6169 239.557 12.6169C238.641 12.6169 237.894 12.9624 237.315 13.6535C236.737 14.3445 236.448 15.3167 236.448 16.5702V22.5H233.796ZM252.475 22.6205C251.253 22.6205 250.257 22.2831 249.486 21.6081C248.73 20.9171 248.353 19.9208 248.353 18.6191V12.8098H245.846V10.4475H248.353V7.0969H251.004V10.4475H254.451V12.8098H251.004V18.1852C251.004 18.9244 251.165 19.4547 251.486 19.7761C251.808 20.0815 252.322 20.2341 253.029 20.2341C253.608 20.2341 254.082 20.1538 254.451 19.9931V22.3554C253.873 22.5321 253.214 22.6205 252.475 22.6205ZM260.076 22.7411C258.967 22.7411 257.986 22.5321 257.135 22.1143C256.283 21.6804 255.648 21.0376 255.23 20.1859L257.183 18.7878C257.424 19.3021 257.81 19.7119 258.34 20.0172C258.87 20.3064 259.449 20.4511 260.076 20.4511C260.574 20.4511 260.983 20.3386 261.305 20.1136C261.642 19.8886 261.811 19.5753 261.811 19.1735C261.811 18.82 261.675 18.5307 261.401 18.3057C261.144 18.0807 260.662 17.8558 259.955 17.6308L258.894 17.3415C256.757 16.763 255.705 15.5337 255.737 13.6535C255.737 12.6089 256.146 11.7733 256.966 11.1465C257.786 10.5198 258.814 10.2064 260.051 10.2064C261.916 10.2064 263.273 10.8894 264.125 12.2554L262.293 13.6535C261.683 12.8339 260.919 12.4241 260.003 12.4241C259.569 12.4241 259.192 12.5286 258.87 12.7375C258.549 12.9303 258.388 13.2035 258.388 13.557C258.388 13.8784 258.493 14.1516 258.702 14.3766C258.91 14.6016 259.288 14.8025 259.834 14.9792L261.064 15.3408C262.189 15.6783 263.032 16.1363 263.595 16.7148C264.157 17.2772 264.439 18.0406 264.439 19.0048C264.439 20.1457 264.029 21.0537 263.209 21.7286C262.39 22.4036 261.345 22.7411 260.076 22.7411Z" fill="white" fill-opacity="0.6"/>
<defs>
<linearGradient id="paint0_linear_11856_538562" x1="17.5153" y1="3.57726e-06" x2="17.5153" y2="28.0291" gradientUnits="userSpaceOnUse">
<stop stop-color="#1D273D"/>
<stop offset="1" stop-color="#0D0F13"/>
</linearGradient>
<linearGradient id="paint1_linear_11856_538562" x1="5.79396" y1="8.72604" x2="8.17136" y2="5.54468" gradientUnits="userSpaceOnUse">
<stop stop-color="#4462FE"/>
<stop offset="1" stop-color="#7D69FA"/>
</linearGradient>
<linearGradient id="paint2_linear_11856_538562" x1="5.56218" y1="8.7517" x2="8.50415" y2="8.60077" gradientUnits="userSpaceOnUse">
<stop stop-color="#3757FD"/>
<stop offset="1" stop-color="#6980FA"/>
</linearGradient>
<linearGradient id="paint3_linear_11856_538562" x1="5.56218" y1="8.7517" x2="8.50415" y2="8.60077" gradientUnits="userSpaceOnUse">
<stop stop-color="#2447FF"/>
<stop offset="1" stop-color="#6980FA"/>
</linearGradient>
<linearGradient id="paint4_linear_11856_538562" x1="5.74972" y1="22.1675" x2="8.085" y2="19.6911" gradientUnits="userSpaceOnUse">
<stop stop-color="#BC3EE6"/>
<stop offset="1" stop-color="#D972F1"/>
</linearGradient>
<linearGradient id="paint5_linear_11856_538562" x1="26.9806" y1="15.1604" x2="29.1396" y2="12.8609" gradientUnits="userSpaceOnUse">
<stop stop-color="#29BDFF"/>
<stop offset="1" stop-color="#96E7FB"/>
</linearGradient>
<linearGradient id="paint6_linear_11856_538562" x1="26.5542" y1="15.726" x2="29.5961" y2="15.5799" gradientUnits="userSpaceOnUse">
<stop stop-color="#23BBFF"/>
<stop offset="1" stop-color="#85E7FF"/>
</linearGradient>
<linearGradient id="paint7_linear_11856_538562" x1="13.6671" y1="8.72604" x2="28.0806" y2="5.26491" gradientUnits="userSpaceOnUse">
<stop stop-color="#23BBFF"/>
<stop offset="1" stop-color="#85E7FF"/>
</linearGradient>
<linearGradient id="paint8_linear_11856_538562" x1="13.7998" y1="22.7405" x2="27.6378" y2="19.1908" gradientUnits="userSpaceOnUse">
<stop stop-color="#2447FF"/>
<stop offset="1" stop-color="#6980FA"/>
</linearGradient>
<linearGradient id="paint9_linear_11856_538562" x1="7.60741" y1="15.7773" x2="20.8259" y2="12.2278" gradientUnits="userSpaceOnUse">
<stop stop-color="#6634FF"/>
<stop offset="1" stop-color="#9C6DFF"/>
</linearGradient>
<clipPath id="clip0_11856_538562">
<rect width="151.273" height="28" fill="white"/>
</clipPath>
</defs>
</svg>
