<svg width="228" height="25" viewBox="0 0 228 25" fill="none" xmlns="http://www.w3.org/2000/svg">
<g clip-path="url(#clip0_10165_58475)">
<g clip-path="url(#clip1_10165_58475)">
<mask id="mask0_10165_58475" style="mask-type:luminance" maskUnits="userSpaceOnUse" x="0" y="0" width="31" height="25">
<path d="M30.5505 0H0V24.5075H30.5505V0Z" fill="white"/>
</mask>
<g mask="url(#mask0_10165_58475)">
<path d="M0 5.20786V19.2997C0 22.1759 2.32525 24.5076 5.19358 24.5076H25.3569C28.2252 24.5076 30.5505 22.1759 30.5505 19.2997V5.20786C30.5505 2.33164 28.2252 0 25.3569 0H5.19358C2.32525 0 0 2.33164 0 5.20786Z" fill="#111111"/>
<path d="M0 5.20786V19.2997C0 22.1759 2.32525 24.5076 5.19358 24.5076H25.3569C28.2252 24.5076 30.5505 22.1759 30.5505 19.2997V5.20786C30.5505 2.33164 28.2252 0 25.3569 0H5.19358C2.32525 0 0 2.33164 0 5.20786Z" fill="url(#paint0_linear_10165_58475)"/>
<path d="M7.63806 6.12694C7.63806 5.28099 6.95416 4.59521 6.11053 4.59521C5.26691 4.59521 4.58301 5.28099 4.58301 6.12694C4.58301 6.97288 5.26691 7.65866 6.11053 7.65866C6.95416 7.65866 7.63806 6.97288 7.63806 6.12694Z" fill="url(#paint1_linear_10165_58475)"/>
<path d="M7.63806 6.12694C7.63806 5.28099 6.95416 4.59521 6.11053 4.59521C5.26691 4.59521 4.58301 5.28099 4.58301 6.12694C4.58301 6.97288 5.26691 7.65866 6.11053 7.65866C6.95416 7.65866 7.63806 6.97288 7.63806 6.12694Z" fill="url(#paint2_linear_10165_58475)"/>
<path d="M7.63806 6.12694C7.63806 5.28099 6.95416 4.59521 6.11053 4.59521C5.26691 4.59521 4.58301 5.28099 4.58301 6.12694C4.58301 6.97288 5.26691 7.65866 6.11053 7.65866C6.95416 7.65866 7.63806 6.97288 7.63806 6.12694Z" fill="url(#paint3_linear_10165_58475)"/>
<path d="M7.63806 18.3709C7.63806 17.5249 6.95416 16.8391 6.11053 16.8391C5.26691 16.8391 4.58301 17.5249 4.58301 18.3709C4.58301 19.2168 5.26691 19.9026 6.11053 19.9026C6.95416 19.9026 7.63806 19.2168 7.63806 18.3709Z" fill="url(#paint4_linear_10165_58475)"/>
<path d="M25.9682 12.2537C25.9682 11.4077 25.2843 10.7219 24.4407 10.7219C23.597 10.7219 22.9131 11.4077 22.9131 12.2537C22.9131 13.0996 23.597 13.7854 24.4407 13.7854C25.2843 13.7854 25.9682 13.0996 25.9682 12.2537Z" fill="url(#paint5_linear_10165_58475)"/>
<path d="M25.9682 12.2537C25.9682 11.4077 25.2843 10.7219 24.4407 10.7219C23.597 10.7219 22.9131 11.4077 22.9131 12.2537C22.9131 13.0996 23.597 13.7854 24.4407 13.7854C25.2843 13.7854 25.9682 13.0996 25.9682 12.2537Z" fill="url(#paint6_linear_10165_58475)"/>
<path d="M24.4402 4.59521H12.22C11.3763 4.59521 10.6924 5.28099 10.6924 6.12694C10.6924 6.97288 11.3763 7.65866 12.22 7.65866H24.4402C25.2838 7.65866 25.9677 6.97288 25.9677 6.12694C25.9677 5.28099 25.2838 4.59521 24.4402 4.59521Z" fill="url(#paint7_linear_10165_58475)"/>
<path d="M24.4402 16.8391H12.22C11.3763 16.8391 10.6924 17.5249 10.6924 18.3709C10.6924 19.2168 11.3763 19.9026 12.22 19.9026H24.4402C25.2838 19.9026 25.9677 19.2168 25.9677 18.3709C25.9677 17.5249 25.2838 16.8391 24.4402 16.8391Z" fill="url(#paint8_linear_10165_58475)"/>
<path d="M18.3307 10.7219H6.11053C5.26691 10.7219 4.58301 11.4077 4.58301 12.2537C4.58301 13.0996 5.26691 13.7854 6.11053 13.7854H18.3307C19.1744 13.7854 19.8583 13.0996 19.8583 12.2537C19.8583 11.4077 19.1744 10.7219 18.3307 10.7219Z" fill="url(#paint9_linear_10165_58475)"/>
</g>
</g>
<g clip-path="url(#clip2_10165_58475)">
<path d="M45.3734 19.0174C48.3502 19.0174 50.4482 17.319 50.4482 14.7193C50.4692 12.4764 49.1211 11.176 46.8723 10.3586L45.3305 9.7925C43.7677 9.2264 43.0178 8.74437 43.0178 7.65421C43.0178 6.56404 44.1312 5.93535 45.4164 5.93535C46.6157 5.93535 47.5364 6.41738 48.3073 7.31884L50.0418 5.66258C48.9284 4.34167 47.3226 3.62891 45.4383 3.62891C42.6113 3.62891 40.4923 5.22259 40.4923 7.82236C40.4923 9.85603 41.6696 11.1554 44.0892 12.0158L45.7598 12.6025C47.2158 13.1265 47.9228 13.7973 47.9228 14.8669C47.9228 15.9776 46.8952 16.7118 45.4602 16.7118C43.9824 16.7118 42.7191 15.9991 41.9272 14.8043L39.957 16.3344C40.8548 17.9477 42.9319 19.0174 45.3734 19.0174ZM57.2671 18.9753C59.5159 18.9753 61.1856 18.0524 62.1492 16.5437L60.3508 15.2854C59.7726 16.2083 58.809 16.8791 57.2891 16.8791C55.4906 16.8791 54.0986 15.7683 53.9917 14.028H62.4068C62.4278 13.6926 62.4278 13.5039 62.4278 13.2732C62.4278 9.89806 60.0941 8.07365 57.2671 8.07365C54.0127 8.07365 51.6781 10.4427 51.6781 13.5245C51.6781 16.7315 54.0118 18.9753 57.2671 18.9753ZM54.0976 12.3502C54.4402 10.7986 55.7893 10.0232 57.1813 10.0232C58.5514 10.0232 59.7936 10.8406 60.0502 12.3502H54.0976ZM74.6641 23.1473V8.2829H72.3084V9.68788C71.7093 8.849 70.4241 8.07365 68.8823 8.07365C65.9484 8.07365 63.7216 10.5267 63.7216 13.5245C63.7216 16.5222 65.9484 18.9753 68.8823 18.9753C70.4241 18.9753 71.7093 18.2 72.3084 17.3611V23.1473H74.6641ZM69.3107 16.8781C67.4263 16.8781 66.1202 15.4106 66.1202 13.5235C66.1202 11.6365 67.4263 10.169 69.3107 10.169C71.195 10.169 72.5011 11.6365 72.5011 13.5235C72.5011 15.4106 71.195 16.8781 69.3107 16.8781ZM80.7588 18.9753C82.1289 18.9753 83.2643 18.4092 83.8854 17.3396V18.7651H86.241V8.2829H83.8854V13.4404C83.8854 15.7048 82.8149 16.8791 81.2731 16.8791C79.903 16.8791 79.1321 15.8515 79.1321 14.1747V8.2829H76.7764V14.5521C76.7764 17.235 78.2963 18.9753 80.7588 18.9753ZM93.6076 18.9753C95.8564 18.9753 97.5261 18.0524 98.4897 16.5437L96.6912 15.2854C96.113 16.2083 95.1494 16.8791 93.6295 16.8791C91.8311 16.8791 90.4391 15.7683 90.3322 14.028H98.7473C98.7683 13.6926 98.7683 13.5039 98.7683 13.2732C98.7683 9.89806 96.4346 8.07365 93.6076 8.07365C90.3532 8.07365 88.0185 10.4427 88.0185 13.5245C88.0185 16.7315 90.3522 18.9753 93.6076 18.9753ZM90.4381 12.3502C90.7806 10.7986 92.1297 10.0232 93.5217 10.0232C94.8918 10.0232 96.134 10.8406 96.3907 12.3502H90.4381ZM100.547 18.7651H102.902V13.6076C102.902 11.3432 104.102 10.169 105.664 10.169C107.035 10.169 107.891 11.1545 107.891 12.8313V18.7642H110.247V12.4539C110.247 9.79157 108.641 8.07178 106.157 8.07178C104.765 8.07178 103.566 8.63788 102.902 9.7075V8.2829H100.547V18.7651ZM117.5 18.9753C119.727 18.9753 121.568 17.8431 122.489 16.0822L120.433 14.992C119.919 16.0617 118.87 16.837 117.499 16.837C115.594 16.837 114.245 15.39 114.245 13.5245C114.245 11.659 115.594 10.2119 117.499 10.2119C118.869 10.2119 119.919 10.9873 120.433 12.0569L122.489 10.9667C121.568 9.20585 119.727 8.07365 117.5 8.07365C114.288 8.07365 111.847 10.4221 111.847 13.5245C111.847 16.6268 114.288 18.9753 117.5 18.9753ZM128.839 18.9753C131.088 18.9753 132.758 18.0524 133.721 16.5437L131.923 15.2854C131.345 16.2083 130.381 16.8791 128.861 16.8791C127.062 16.8791 125.671 15.7683 125.563 14.028H133.979C134 13.6926 134 13.5039 134 13.2732C134 9.89806 131.666 8.07365 128.839 8.07365C125.584 8.07365 123.25 10.4427 123.25 13.5245C123.25 16.7315 125.584 18.9753 128.839 18.9753ZM125.67 12.3502C126.012 10.7986 127.362 10.0232 128.754 10.0232C130.124 10.0232 131.366 10.8406 131.622 12.3502H125.67Z" fill="white"/>
</g>
<path d="M217.354 19V3.25H219.664V12.49L223.675 8.5H226.594L221.911 13.183L227.644 19H224.683L219.664 13.918V19H217.354Z" fill="#9C9C9C"/>
<path d="M215.45 13.75C215.45 16.795 213.056 19.21 209.948 19.21C206.84 19.21 204.446 16.795 204.446 13.75C204.446 10.705 206.84 8.29004 209.948 8.29004C213.056 8.29004 215.45 10.705 215.45 13.75ZM206.777 13.75C206.777 15.619 208.079 17.068 209.948 17.068C211.796 17.068 213.098 15.619 213.098 13.75C213.098 11.881 211.796 10.432 209.948 10.432C208.079 10.432 206.777 11.881 206.777 13.75Z" fill="#9C9C9C"/>
<path d="M203.299 13.75C203.299 16.795 200.905 19.21 197.797 19.21C194.689 19.21 192.295 16.795 192.295 13.75C192.295 10.705 194.689 8.29004 197.797 8.29004C200.905 8.29004 203.299 10.705 203.299 13.75ZM194.626 13.75C194.626 15.619 195.928 17.068 197.797 17.068C199.645 17.068 200.947 15.619 200.947 13.75C200.947 11.881 199.645 10.432 197.797 10.432C195.928 10.432 194.626 11.881 194.626 13.75Z" fill="#9C9C9C"/>
<path d="M182.676 17.593V19H180.366V3.25H182.676V9.907C183.264 9.067 184.545 8.29 186.057 8.29C188.934 8.29 191.118 10.747 191.118 13.75C191.118 16.753 188.934 19.21 186.057 19.21C184.545 19.21 183.264 18.433 182.676 17.593ZM188.766 13.75C188.766 11.86 187.485 10.39 185.637 10.39C183.768 10.39 182.487 11.86 182.487 13.75C182.487 15.64 183.768 17.11 185.637 17.11C187.485 17.11 188.766 15.64 188.766 13.75Z" fill="#9C9C9C"/>
<path d="M172.436 23.389H169.895L172.142 18.433L167.627 8.5H170.168L173.402 15.934L176.615 8.5H179.177L172.436 23.389Z" fill="#9C9C9C"/>
<path d="M155.636 13.75C155.636 10.747 157.82 8.29004 160.697 8.29004C162.209 8.29004 163.469 9.06704 164.057 9.90704V8.50004H166.367V19H164.057V17.593C163.469 18.433 162.209 19.21 160.697 19.21C157.82 19.21 155.636 16.753 155.636 13.75ZM164.246 13.75C164.246 11.86 162.986 10.39 161.117 10.39C159.248 10.39 157.988 11.86 157.988 13.75C157.988 15.64 159.248 17.11 161.117 17.11C162.986 17.11 164.246 15.64 164.246 13.75Z" fill="#9C9C9C"/>
<path d="M151.397 19V3.25H153.707V19H151.397Z" fill="#9C9C9C"/>
<path d="M144.573 4.09009C147.639 4.09009 149.739 6.21109 149.739 8.96209C149.739 11.7131 147.639 13.8341 144.573 13.8341H142.284V19.0001H139.827V4.09009H144.573ZM144.552 11.5241C146.295 11.5241 147.324 10.4111 147.324 8.96209C147.324 7.51309 146.295 6.40009 144.552 6.40009H142.284V11.5241H144.552Z" fill="#9C9C9C"/>
</g>
<defs>
<linearGradient id="paint0_linear_10165_58475" x1="15.2752" y1="3.131e-06" x2="15.2752" y2="24.533" gradientUnits="userSpaceOnUse">
<stop stop-color="#1D273D"/>
<stop offset="1" stop-color="#0D0F13"/>
</linearGradient>
<linearGradient id="paint1_linear_10165_58475" x1="5.05362" y1="7.63768" x2="7.13661" y2="4.86036" gradientUnits="userSpaceOnUse">
<stop stop-color="#4462FE"/>
<stop offset="1" stop-color="#7D69FA"/>
</linearGradient>
<linearGradient id="paint2_linear_10165_58475" x1="4.85148" y1="7.66014" x2="7.41725" y2="7.52898" gradientUnits="userSpaceOnUse">
<stop stop-color="#3757FD"/>
<stop offset="1" stop-color="#6980FA"/>
</linearGradient>
<linearGradient id="paint3_linear_10165_58475" x1="4.85148" y1="7.66014" x2="7.41725" y2="7.52898" gradientUnits="userSpaceOnUse">
<stop stop-color="#2447FF"/>
<stop offset="1" stop-color="#6980FA"/>
</linearGradient>
<linearGradient id="paint4_linear_10165_58475" x1="5.01504" y1="19.4026" x2="7.05946" y2="17.2425" gradientUnits="userSpaceOnUse">
<stop stop-color="#BC3EE6"/>
<stop offset="1" stop-color="#D972F1"/>
</linearGradient>
<linearGradient id="paint5_linear_10165_58475" x1="23.5303" y1="13.2693" x2="25.4204" y2="11.2635" gradientUnits="userSpaceOnUse">
<stop stop-color="#29BDFF"/>
<stop offset="1" stop-color="#96E7FB"/>
</linearGradient>
<linearGradient id="paint6_linear_10165_58475" x1="23.1585" y1="13.7644" x2="25.8114" y2="13.6375" gradientUnits="userSpaceOnUse">
<stop stop-color="#23BBFF"/>
<stop offset="1" stop-color="#85E7FF"/>
</linearGradient>
<linearGradient id="paint7_linear_10165_58475" x1="11.9191" y1="7.63768" x2="24.4942" y2="4.62891" gradientUnits="userSpaceOnUse">
<stop stop-color="#23BBFF"/>
<stop offset="1" stop-color="#85E7FF"/>
</linearGradient>
<linearGradient id="paint8_linear_10165_58475" x1="12.0348" y1="19.9041" x2="24.1084" y2="16.8181" gradientUnits="userSpaceOnUse">
<stop stop-color="#2447FF"/>
<stop offset="1" stop-color="#6980FA"/>
</linearGradient>
<linearGradient id="paint9_linear_10165_58475" x1="6.63515" y1="13.8093" x2="18.1687" y2="10.7234" gradientUnits="userSpaceOnUse">
<stop stop-color="#6634FF"/>
<stop offset="1" stop-color="#9C6DFF"/>
</linearGradient>
<clipPath id="clip0_10165_58475">
<rect width="228" height="25" fill="white"/>
</clipPath>
<clipPath id="clip1_10165_58475">
<rect width="31" height="25" fill="white"/>
</clipPath>
<clipPath id="clip2_10165_58475">
<rect width="95" height="21" fill="white" transform="translate(39 3)"/>
</clipPath>
</defs>
</svg>
