<svg width="72" height="72" viewBox="0 0 72 72" fill="none" xmlns="http://www.w3.org/2000/svg">
<path fill-rule="evenodd" clip-rule="evenodd" d="M10.386 22.1531C9.43646 18.7274 11.5395 15.2062 15.0834 14.2883L43.9583 6.80957L37.5416 8.47161L47.8576 45.688L27.0036 51.0895C24.3457 51.778 22.7684 54.4189 23.4806 56.9882C24.1928 59.5575 26.9248 61.0822 29.5826 60.3937L61.6661 52.0836C62.552 51.8541 63.4627 52.3623 63.7001 53.2188C63.9375 54.0752 63.4117 54.9555 62.5258 55.185L28.8381 63.9107C25.2943 64.8286 21.6517 62.7956 20.7021 59.3699L10.386 22.1531ZM43.9583 6.80957C47.5021 5.89166 51.1449 7.92415 52.0945 11.3499L59.8316 39.2625C60.3064 40.9753 59.2548 42.7359 57.4829 43.1949L54.2742 44.026L43.9583 6.80957ZM19.612 22.4985C18.2515 22.8508 17.4441 24.2026 17.8087 25.5178C18.1732 26.8329 19.5716 27.6134 20.9321 27.261C22.2926 26.9086 23.1 25.5568 22.7355 24.2417C22.3709 22.9265 20.9725 22.1461 19.612 22.4985ZM33.7159 29.5647C33.3513 28.2496 34.1587 26.8978 35.5192 26.5454C36.8797 26.193 38.2781 26.9735 38.6426 28.2886C39.0072 29.6038 38.1998 30.9556 36.8393 31.3079C35.4788 31.6603 34.0804 30.8799 33.7159 29.5647ZM22.0331 40.758C21.6685 39.4428 22.4759 38.091 23.8364 37.7386L38.6167 33.9103C39.9772 33.5579 41.3757 34.3383 41.7402 35.6535C42.1047 36.9686 41.2974 38.3204 39.9369 38.6728L25.1565 42.5012C23.7961 42.8536 22.3976 42.0731 22.0331 40.758ZM19.9209 33.1379C19.5563 31.8227 20.3637 30.4709 21.7242 30.1185L27.6363 28.5872C28.9968 28.2348 30.3953 29.0153 30.7598 30.3304C31.1243 31.6455 30.317 32.9973 28.9565 33.3497L23.0443 34.8811C21.6839 35.2335 20.2854 34.453 19.9209 33.1379ZM27.4949 20.4567C26.1344 20.8091 25.327 22.1609 25.6915 23.476C26.0561 24.7911 27.4545 25.5716 28.815 25.2192L34.7271 23.6879C36.0876 23.3355 36.895 21.9837 36.5304 20.6685C36.1659 19.3534 34.7675 18.5729 33.407 18.9253L27.4949 20.4567Z" fill="white"/>
</svg>
