<svg width="24" height="24" viewBox="0 0 24 24" fill="none" xmlns="http://www.w3.org/2000/svg">
<path d="M5.42682 11.6588C8.761 10.2064 10.9838 9.24888 12.0952 8.78628C15.2721 7.46529 15.9315 7.23587 16.3621 7.2281C16.4568 7.22658 16.6676 7.24998 16.8052 7.36121C16.9196 7.45502 16.9517 7.58188 16.9678 7.67096C16.9821 7.75994 17.0018 7.96274 16.9857 8.12105C16.8141 9.9293 16.069 14.3173 15.6902 16.3427C15.5312 17.1996 15.2149 17.487 14.9094 17.515C14.2447 17.5761 13.7408 17.0762 13.0976 16.6547C12.0916 15.9948 11.5234 15.5842 10.546 14.9404C9.41676 14.1964 10.1494 13.7874 10.7926 13.1191C10.9606 12.9442 13.8873 10.2827 13.9427 10.0413C13.9499 10.0111 13.957 9.89857 13.8891 9.83924C13.823 9.77974 13.7248 9.80011 13.6533 9.8162C13.5514 9.83907 11.9451 10.9019 8.8289 13.0044C8.37327 13.3178 7.96051 13.4706 7.58886 13.4625C7.18147 13.4538 6.39527 13.2317 5.81099 13.0419C5.09626 12.8091 4.52627 12.686 4.5763 12.2906C4.60132 12.0847 4.88542 11.8741 5.42682 11.6588Z" fill="white"/>
</svg>
