<svg width="24" height="24" viewBox="0 0 24 24" fill="none" xmlns="http://www.w3.org/2000/svg">
<path d="M12.9713 11.9834L15.4844 7.64695L16.6999 11.9834L15.4844 16.3253L12.9658 11.9834H12.9713ZM11.7448 12.6952L14.2634 17.0316L9.8832 15.9092L6.71301 12.6842H11.7393L11.7448 12.6952ZM14.2579 6.93517L11.7448 11.2771H6.71848L9.87772 8.0576L14.2579 6.93517ZM17.8443 10.5051L16.3167 4.7998L10.5895 6.33288L9.74084 7.82216L8.0216 7.81121L3.83301 11.9834L8.0216 16.161L9.74084 16.1501L10.5895 17.6393L16.3112 19.167L17.8443 13.4617L16.9737 11.9834L17.8497 10.5051H17.8443Z" fill="white"/>
</svg>
