<svg width="24" height="24" viewBox="0 0 24 24" fill="none" xmlns="http://www.w3.org/2000/svg">
<path fill-rule="evenodd" clip-rule="evenodd" d="M18.8407 13.6371C18.5944 14.6644 18.1176 15.6223 17.4465 16.4382C16.7754 17.2542 15.9275 17.9068 14.967 18.3467L13.8523 17.0834L11.948 18.9877C10.8701 18.9748 9.80969 18.7133 8.8494 18.2234C7.88911 17.7336 7.05484 17.0288 6.41155 16.1638C6.61592 16.2195 6.82028 16.2566 7.03394 16.2752C7.34049 16.2752 7.68419 16.173 7.68419 15.6436V10.4973C7.68891 10.3647 7.66238 10.2329 7.60675 10.1126C7.55112 9.99218 7.46794 9.88658 7.36395 9.80428C7.25995 9.72199 7.13806 9.66532 7.00811 9.63886C6.87816 9.61239 6.74381 9.61686 6.61592 9.65192C5.73343 9.85629 5.03673 12.0486 5.03673 12.0486C5.01463 10.359 5.60733 8.71896 6.70445 7.43386C7.80158 6.14875 9.32835 5.30616 11.0005 5.06299C10.0437 5.62035 9.51419 6.50284 9.51419 7.24598C9.51419 8.4536 10.2295 8.30497 10.4431 8.12847V15.0769C10.5426 15.317 10.7235 15.5143 10.954 15.6343C11.0979 15.7076 11.2571 15.7458 11.4185 15.7457C12.1524 15.7457 13.0906 14.9097 13.0906 14.9097V9.28964C13.0725 8.98915 12.985 8.69693 12.8352 8.43586C12.6853 8.17478 12.477 7.95194 12.2267 7.78477C12.2267 7.78477 13.0256 7.64543 13.648 8.11918C14.7368 6.8185 16.2627 5.95973 17.9396 5.70395C17.9396 5.70395 15.8867 7.31101 15.8867 9.47543C15.8867 11.0825 15.9238 15.0119 15.9238 15.0119C16.6856 15.7457 17.8189 14.6775 18.8407 13.6371Z" fill="white"/>
</svg>
