<?xml version="1.0" encoding="UTF-8"?>
<svg xmlns="http://www.w3.org/2000/svg" xmlns:xlink="http://www.w3.org/1999/xlink" width="0" height="0">
<defs>
<symbol viewBox="0 0 24 24" fill="none" stroke="currentColor" stroke-width="2" stroke-linecap="round" stroke-linejoin="round" class="lucide lucide-arrow-left" id="arrow-left"><path d="m12 19-7-7 7-7"></path><path d="M19 12H5"></path></symbol>
<symbol viewBox="0 0 160 160" fill="none" id="book-base">
  <g opacity="0.5">
  <path d="M13.214 27.7967C8.40525 29.0499 5.55155 33.8572 6.84004 38.5342L37.1693 148.623C38.4577 153.3 43.4005 156.076 48.2092 154.823L126.572 134.401L91.5764 7.37482L13.214 27.7967Z" fill="currentColor"></path>
  <path d="M100.283 5.10572L135.279 132.132L137.455 131.564C142.264 130.311 145.118 125.504 143.829 120.827L113.5 10.7377C112.212 6.06077 107.269 3.28526 102.46 4.53844L100.283 5.10572Z" fill="currentColor"></path>
  </g>
  <path opacity="0.2" d="M48.2095 154.823C47.9461 154.891 47.6822 154.948 47.4186 154.993C48.6281 155.342 49.9307 155.448 51.2556 155.264L73.0061 152.237L144.216 133.679C149.024 132.426 151.878 127.618 150.59 122.942L120.26 12.8524C119.105 8.65822 115.011 5.99319 110.71 6.39151C112.02 7.49831 113.017 8.98442 113.5 10.7378L143.829 120.827C145.118 125.504 142.264 130.311 137.455 131.564L48.2095 154.823Z" fill="currentColor"></path>
  <path opacity="0.4" d="M118.637 9.69689C119.372 10.6034 119.933 11.6668 120.26 12.8524L150.589 122.941C151.878 127.618 149.024 132.426 144.215 133.679L93.9547 146.777L148.732 135.89C154.022 135.154 157.496 130.128 156.2 125.086L128.458 16.2755C127.353 11.9779 123.133 9.16985 118.637 9.69689Z" fill="currentColor"></path>
  </symbol>
<symbol viewBox="0 0 160 160" fill="none" id="book-cover-coins">
<g clip-path="url(#clip0_10003_5068)">
<path fill-rule="evenodd" clip-rule="evenodd" d="M45.3223 70.4794C44.9154 71.471 44.6309 72.9207 45.4445 74.2913L47.337 77.4795C48.7919 79.9304 51.37 80.3377 52.4445 80.4115C53.731 80.4998 55.0088 80.2892 56.0658 80.0319C57.9004 79.5852 59.9533 78.7753 61.9859 77.7287C62.0947 76.9825 62.3048 76.3314 62.5095 75.8328C63.094 74.4083 64.0349 73.1578 64.9585 72.1448C66.7594 70.1696 69.3 68.225 72.1557 66.5766C72.1224 65.766 71.9089 64.8785 71.3761 63.9808L69.4835 60.7926C68.6699 59.422 67.2368 58.9368 66.1503 58.7837C65.028 58.6256 63.7864 58.7369 62.5736 58.9783C60.1207 59.4664 57.1948 60.6081 54.3097 62.2282C51.4245 63.8483 48.945 65.742 47.2839 67.5639C46.4625 68.4648 45.7427 69.455 45.3223 70.4794ZM67.2981 62.0196C68.3434 63.7805 64.7878 67.6802 59.3565 70.7301C53.9253 73.7799 48.6751 74.8248 47.6298 73.064C46.5846 71.3032 50.1401 67.4034 55.5714 64.3536C61.0026 61.3038 66.2529 60.2588 67.2981 62.0196Z" fill="currentColor"></path>
<path fill-rule="evenodd" clip-rule="evenodd" d="M65.2303 76.889C64.8319 77.8596 64.5534 79.2786 65.3498 80.6203L66.3518 82.3082C66.6634 82.2858 66.9763 82.2665 67.2901 82.2502C71.3793 82.0382 75.3531 82.3628 78.5335 83.2139C79.4088 83.4481 80.3286 83.7496 81.2249 84.1458C81.7091 83.9027 82.1928 83.6455 82.6727 83.3761C85.0216 82.0571 87.1533 80.5138 88.6853 78.9738C89.427 78.2282 90.2359 77.2778 90.7886 76.1738C91.2501 75.2518 92.1569 72.9269 90.7328 70.5279L88.8803 67.4071C88.0839 66.0655 86.6811 65.5906 85.6177 65.4408C84.5191 65.286 83.3038 65.3949 82.1166 65.6312C79.7156 66.1091 76.8516 67.2266 74.0275 68.8124C71.2034 70.3982 68.7763 72.2518 67.1503 74.0352C66.3464 74.917 65.6418 75.8863 65.2303 76.889ZM86.7413 68.6083C87.7644 70.3318 84.2841 74.1491 78.9677 77.1344C73.6514 80.1197 68.5122 81.1425 67.4891 79.419C66.466 77.6954 69.9463 73.8781 75.2626 70.8928C80.579 67.9075 85.7181 66.8847 86.7413 68.6083Z" fill="currentColor"></path>
<path fill-rule="evenodd" clip-rule="evenodd" d="M51.7458 93.0426C51.6453 91.2078 52.7239 89.8532 53.6815 89.0352C54.6707 88.1903 55.9513 87.5339 57.2887 87.0219C59.9933 85.9865 63.5837 85.2956 67.4459 85.0954C71.3081 84.8953 74.9537 85.2111 77.7562 85.9611C79.1419 86.3319 80.4869 86.8522 81.5629 87.5901C82.6044 88.3045 83.825 89.5399 83.9255 91.3747L84.1594 95.6426C84.3391 98.9234 82.0956 100.907 81.098 101.641C79.9036 102.519 78.5232 103.101 77.327 103.502C74.8562 104.329 71.7495 104.846 68.5372 105.012C65.3249 105.179 62.1794 104.986 59.6321 104.419C58.399 104.144 56.9627 103.708 55.6791 102.958C54.6071 102.332 52.1594 100.591 51.9797 97.3105L51.7458 93.0426ZM68.0695 96.4766C75.34 96.0997 81.1292 93.8834 81.0001 91.5263C80.8709 89.1692 74.8723 87.5639 67.6018 87.9407C60.3313 88.3176 54.5421 90.5339 54.6713 92.891C54.8004 95.2481 60.799 96.8534 68.0695 96.4766Z" fill="currentColor"></path>
</g>
<defs>
<clipPath id="clip0_10003_5068">
<rect width="58.4854" height="57.0952" fill="white" transform="matrix(0.967679 -0.252185 0.265602 0.964083 34.013 60.9509)"></rect>
</clipPath>
</defs>
</symbol>
<symbol viewBox="0 0 160 160" fill="none" id="book-cover-connection">
<path fill-rule="evenodd" clip-rule="evenodd" d="M53.795 70.5447L59.5468 91.4225C59.7832 92.2807 60.9684 92.4325 61.4252 91.6631L75.0678 68.6808C77.221 65.0534 82.8085 65.7689 83.9231 69.8146L89.6749 90.6924L85.9962 91.6511L80.2444 70.7733C80.008 69.9151 78.8228 69.7634 78.366 70.5328L64.7234 93.5151C62.5702 97.1425 56.9827 96.427 55.8681 92.3812L50.1163 71.5034L53.795 70.5447Z" fill="currentColor"></path>
<path d="M49.703 62.851C45.0623 64.0604 42.3084 68.6997 43.5518 73.2132C44.7953 77.7268 49.5653 80.4053 54.206 79.1959C58.8467 77.9865 61.6006 73.3472 60.3572 68.8336C59.1137 64.3201 54.3437 61.6416 49.703 62.851Z" fill="currentColor"></path>
<path d="M85.5801 82.9994C80.9394 84.2088 78.1855 88.8481 79.4289 93.3617C80.6724 97.8752 85.4424 100.554 90.0831 99.3443C94.7238 98.1349 97.4777 93.4956 96.2343 88.982C94.9908 84.4685 90.2208 81.79 85.5801 82.9994Z" fill="currentColor"></path>
</symbol>
<symbol viewBox="0 0 160 160" fill="none" id="book-cover-globe">
<path fill-rule="evenodd" clip-rule="evenodd" d="M92.5873 75.4038C95.9374 87.5639 88.5178 100.063 76.0151 103.321C63.5125 106.58 50.6613 99.3632 47.3113 87.2031C43.9612 75.043 51.3808 62.5439 63.8834 59.2856C76.3861 56.0274 89.2373 63.2437 92.5873 75.4038ZM50.93 80.2982C50.8239 82.2024 51.0209 84.155 51.5559 86.0969C51.8245 87.0721 52.1684 88.0081 52.5797 88.9006C54.4642 89.7534 56.6765 90.2398 59.2345 90.3554C58.5206 88.7915 57.8835 87.0473 57.3487 85.1058C57.044 84 56.801 82.9334 56.6139 81.9057C54.5114 81.6635 52.6829 81.1086 50.93 80.2982ZM51.4073 77.0702C52.8404 77.7303 54.4085 78.2594 56.1865 78.5798C55.806 73.329 56.9712 69.2762 58.7006 66.3535C55.0234 68.9721 52.443 72.7959 51.4073 77.0702ZM59.6199 82.0377C59.7723 82.7897 59.9575 83.5664 60.1784 84.3684C60.8089 86.6568 61.5855 88.6265 62.4564 90.3166C64.8932 90.1613 67.5904 89.7308 70.5593 89.0222L68.2849 80.7665C64.8769 81.584 62.0591 81.9874 59.6199 82.0377ZM67.5245 78.0065C64.2989 78.7425 61.5505 78.997 59.1537 78.9002C58.4631 71.3655 61.3017 66.8054 63.8615 64.7105L67.5245 78.0065ZM71.1146 80.029L73.3891 88.2848C76.3245 87.4547 78.8817 86.5158 81.0718 85.4652C80.9572 83.5781 80.6172 81.4946 79.9867 79.2062C79.7658 78.4042 79.5269 77.6415 79.2723 76.9162C77.134 78.0587 74.4863 79.0797 71.1146 80.029ZM78.063 73.9723C76.0372 75.2217 73.5261 76.3378 70.3543 77.269L66.6913 63.973C69.985 64.5424 74.7877 67.1112 78.063 73.9723ZM81.8077 75.3399C82.174 76.3209 82.5118 77.3628 82.8165 78.4687C83.3513 80.4101 83.6963 82.2306 83.882 83.932C86.0379 82.588 87.7037 81.0909 88.8974 79.4359C88.7947 78.4629 88.6113 77.4851 88.3427 76.51C87.8077 74.568 86.9744 72.7812 85.9037 71.1838C84.8023 72.7381 83.504 74.1078 81.8077 75.3399ZM83.8309 68.6204C82.9291 69.889 81.8431 71.1097 80.468 72.2519C78.0982 67.5195 75.0056 64.5763 72.0054 62.8862C76.5362 63.3657 80.7366 65.4224 83.8309 68.6204ZM66.311 99.4871C61.7446 98.6194 57.6235 96.1394 54.7904 92.5203C56.6648 93.2114 58.6625 93.6676 61.0773 93.7624C62.6703 96.2602 64.4768 98.1278 66.311 99.4871ZM73.2085 99.5519C70.6977 99.0476 67.3948 97.4009 64.5537 93.665C66.5633 93.4882 68.8466 93.1027 71.5074 92.4636L73.4485 99.5095C73.3685 99.5242 73.2885 99.5383 73.2085 99.5519ZM76.2783 98.7721L74.3372 91.7261C76.9701 90.9857 79.1456 90.2092 80.9768 89.385C80.437 94.002 78.4232 97.0343 76.508 98.692C76.4317 98.7191 76.3551 98.7458 76.2783 98.7721ZM82.448 95.2816C83.3377 93.2124 83.9421 90.7166 84.0376 87.7788C86.0801 86.5224 87.5757 85.1558 88.8437 83.6457C88.2507 88.1577 85.9566 92.3095 82.448 95.2816Z" fill="currentColor"></path>
</symbol>
<symbol viewBox="0 0 160 160" fill="none" id="book-cover-inventory">
<g clip-path="url(#clip0_10003_5017)">
<path d="M42.7054 70.4849C41.8679 67.4449 43.6214 64.3465 46.6221 63.5646L53.8662 61.6767C56.8669 60.8947 59.9783 62.7252 60.8158 65.7652L62.8378 73.1045C63.6753 76.1445 61.9218 79.2429 58.9211 80.0248L51.6769 81.9127C48.6763 82.6947 45.5649 80.8642 44.7274 77.8242L42.7054 70.4849Z" fill="currentColor"></path>
<path d="M69.8711 63.4053C69.0335 60.3653 70.7871 57.267 73.7877 56.485L81.0319 54.5971C84.0325 53.8151 87.144 55.6456 87.9815 58.6856L90.0034 66.0249C90.8409 69.0649 89.0874 72.1633 86.0868 72.9453L78.8426 74.8331C75.842 75.6151 72.7305 73.7846 71.893 70.7446L69.8711 63.4053Z" fill="currentColor"></path>
<path d="M49.7822 96.1724C48.9447 93.1323 50.6983 90.034 53.6989 89.252L60.9431 87.3641C63.9437 86.5821 67.0551 88.4126 67.8927 91.4526L69.9146 98.7919C70.7521 101.832 68.9986 104.93 65.9979 105.712L58.7538 107.6C55.7531 108.382 52.6417 106.552 51.8042 103.512L49.7822 96.1724Z" fill="currentColor"></path>
<path d="M76.9479 89.0928C76.1104 86.0528 77.8639 82.9544 80.8645 82.1724L88.1087 80.2845C91.1093 79.5025 94.2208 81.333 95.0583 84.3731L97.0802 91.7123C97.9178 94.7524 96.1642 97.8507 93.1636 98.6327L85.9194 100.521C82.9188 101.303 79.8073 99.4721 78.9698 96.4321L76.9479 89.0928Z" fill="currentColor"></path>
</g>
<defs>
<clipPath id="clip0_10003_5017">
<rect width="58.4854" height="57.0952" fill="white" transform="matrix(0.967679 -0.252185 0.265602 0.964083 34.013 60.9509)"></rect>
</clipPath>
</defs>
</symbol>
<symbol viewBox="0 0 160 160" fill="none" id="book-cover-list">
<g clip-path="url(#clip0_10003_5101)">
<path fill-rule="evenodd" clip-rule="evenodd" d="M41.5901 65.0601L61.2016 59.9491L66.4565 79.0234L46.845 84.1343L41.5901 65.0601ZM48.3176 68.8378L50.7291 77.5911L59.7291 75.2457L57.3175 66.4923L48.3176 68.8378ZM67.4483 60.4511L87.0599 55.3401L88.4816 60.5005L68.87 65.6115L67.4483 60.4511ZM70.1864 70.39L89.7981 65.279L91.2197 70.4395L71.6081 75.5504L70.1864 70.39Z" fill="currentColor"></path>
<path fill-rule="evenodd" clip-rule="evenodd" d="M48.3668 89.6582L67.9783 84.5473L73.2332 103.622L53.6217 108.732L48.3668 89.6582ZM55.0942 93.4359L57.5058 102.189L66.5057 99.8438L64.0942 91.0904L55.0942 93.4359ZM74.2249 85.0492L93.8366 79.9383L95.2583 85.0987L75.6466 90.2096L74.2249 85.0492ZM76.9631 94.9881L96.5747 89.8772L97.9964 95.0376L78.3848 100.149L76.9631 94.9881Z" fill="currentColor"></path>
</g>
<defs>
<clipPath id="clip0_10003_5101">
<rect width="58.4854" height="57.0952" fill="white" transform="matrix(0.967679 -0.252185 0.265602 0.964083 34.013 60.9507)"></rect>
</clipPath>
</defs>
</symbol>
<symbol viewBox="0 0 160 160" fill="none" id="book-cover-marketplace">
<path d="M58.5738 84.0485L52.9143 85.5234L58.2219 104.789C58.6407 106.309 60.2471 107.211 61.8099 106.804L90.1074 99.4292C91.6703 99.0219 92.5977 97.4595 92.179 95.9395L86.8714 76.6739L81.2118 78.1488L85.003 91.9099L62.365 97.8096L58.5738 84.0485Z" fill="currentColor"></path>
<path fill-rule="evenodd" clip-rule="evenodd" d="M48.2801 77.8816L86.9561 67.8023L77.1318 58.5633L52.0386 65.1028L48.2801 77.8816ZM45.1901 79.5039C45.0527 79.0051 45.0572 78.4793 45.2033 77.9828L49.222 64.3191C49.505 63.3569 50.2864 62.6096 51.2804 62.3506L76.3736 55.8111C77.3676 55.552 78.4284 55.8192 79.1682 56.5149L89.6728 66.3937C90.0545 66.7527 90.3288 67.2058 90.4662 67.7046L91.0144 69.6945L45.7383 81.4938L45.1901 79.5039Z" fill="currentColor"></path>
<path fill-rule="evenodd" clip-rule="evenodd" d="M87.4264 67.6797C88.9893 67.2725 90.5956 68.1745 91.0144 69.6945L91.2671 70.6119C92.4183 74.7903 89.6734 78.8935 85.5073 79.9792C83.659 80.4609 81.7478 80.2922 80.0926 79.5906C79.0199 81.0031 77.4514 82.0786 75.6031 82.5603C73.7549 83.042 71.8436 82.8733 70.1885 82.1717C69.1157 83.5842 67.5472 84.6597 65.699 85.1414C63.8508 85.6231 61.9395 85.4544 60.2843 84.7528C59.2116 86.1653 57.6431 87.2408 55.7949 87.7225C51.6288 88.8082 47.1422 86.5896 45.9911 82.4112L45.7383 81.4938C45.3196 79.9738 46.247 78.4114 47.8099 78.0041L87.4264 67.6797ZM57.8595 83.1512C58.3517 82.5284 58.6843 81.8023 58.8184 81.0349C58.8688 80.7466 59.4507 80.595 59.6425 80.8201C60.1532 81.4195 60.8145 81.8866 61.5609 82.1866C62.5839 82.5978 63.7667 82.6951 64.9408 82.3892C66.1148 82.0832 67.0891 81.4237 67.7637 80.5701C68.2559 79.9473 68.5885 79.2212 68.7225 78.4538C68.7675 78.1964 69.3754 78.038 69.5467 78.239C70.0573 78.8384 70.7186 79.3055 71.4651 79.6055C72.488 80.0167 73.6709 80.114 74.8449 79.8081C76.0189 79.5021 76.9933 78.8426 77.6678 77.989C78.16 77.3662 78.4926 76.6401 78.6267 75.8727C78.6717 75.6153 79.2795 75.4569 79.4508 75.6579C79.9614 76.2573 80.6228 76.7244 81.3692 77.0244C82.3922 77.4356 83.575 77.5329 84.749 77.227C86.7797 76.6978 88.213 75.1108 88.5308 73.2916C88.6411 72.6606 88.6171 72.0018 88.4374 71.3494L88.1847 70.432L48.5681 80.7564L48.8208 81.6738C49.0006 82.3262 49.3185 82.9084 49.7384 83.4012C50.9489 84.8221 53.006 85.4995 55.0366 84.9703C56.2106 84.6643 57.185 84.0048 57.8595 83.1512Z" fill="currentColor"></path>
<path fill-rule="evenodd" clip-rule="evenodd" d="M57.2931 61.0012C58.1011 60.9625 58.7883 61.5682 58.8281 62.3541L59.5556 76.7293C59.5954 77.5151 58.9726 78.1836 58.1646 78.2222C57.3566 78.2609 56.6693 77.6552 56.6296 76.8693L55.9021 62.4941C55.8623 61.7083 56.4851 61.0399 57.2931 61.0012Z" fill="currentColor"></path>
<path fill-rule="evenodd" clip-rule="evenodd" d="M70.6253 57.5238C69.9021 57.8765 69.6098 58.7325 69.9725 59.4359L76.5922 72.2755C76.9548 72.9789 77.835 73.2631 78.5582 72.9104C79.2813 72.5577 79.5736 71.7017 79.211 70.9983L72.5912 58.1587C72.2286 57.4554 71.3484 57.1711 70.6253 57.5238Z" fill="currentColor"></path>
<path fill-rule="evenodd" clip-rule="evenodd" d="M63.9017 59.3885C63.1204 59.5927 62.6572 60.3742 62.8671 61.134L66.5832 74.5876C66.7931 75.3474 67.5966 75.798 68.3779 75.5938C69.1592 75.3897 69.6223 74.6082 69.4125 73.8483L65.6963 60.3948C65.4864 59.6349 64.6829 59.1844 63.9017 59.3885Z" fill="currentColor"></path>
</symbol>
<symbol viewBox="0 0 160 160" fill="none" id="book-cover-minter">
<path d="M47.4284 72.6296L58.2218 62.1319L65.3489 69.0084L67.696 71.3465L75.162 78.6079L64.3685 89.1056L47.4284 72.6296Z" fill="currentColor"></path>
<path d="M56.934 100.366L49.8403 96.383L88.367 86.3426L87.8219 92.3167L84.0113 93.3098C83.0789 93.5528 81.3639 94.5829 81.9636 96.7594C82.5632 98.9359 84.578 98.9941 85.5104 98.7511L87.2003 98.3107L88.3246 102.392L63.3397 108.903L62.2154 104.822L65.3164 104.014C67.5543 103.431 67.6141 101.471 67.3642 100.564C67.1144 99.6572 66.0552 97.9893 63.8174 98.5725L56.934 100.366Z" fill="currentColor"></path>
<path d="M79.4664 55.2997L65.3489 69.0084L67.696 71.3465L81.5637 57.4081L79.4664 55.2997Z" fill="currentColor"></path>
</symbol>
<symbol viewBox="0 0 160 160" fill="none" id="book-cover-payments">
<path fill-rule="evenodd" clip-rule="evenodd" d="M85.8208 62.9685C87.3836 62.5612 88.99 63.4632 89.4088 64.9832L89.9617 66.9889L45.2601 78.6385L46.8184 84.295L91.5197 72.6455L95.079 85.5649C95.4977 87.0849 94.5703 88.6473 93.0074 89.0546L53.9653 99.2293C52.4025 99.6366 50.7961 98.7345 50.3774 97.2145L44.7072 76.6328C44.2884 75.1128 45.2159 73.5504 46.7787 73.1432L85.8208 62.9685ZM71.1679 88.2735L90.9761 83.1113L91.7344 85.8635L71.9261 91.0257L71.1679 88.2735Z" fill="currentColor"></path>
</symbol>
<symbol viewBox="0 0 160 160" fill="none" id="book-cover-wallet">
  <path fill-rule="evenodd" clip-rule="evenodd" d="M52.7487 73.9131C53.0847 75.1327 54.4587 75.8343 55.8177 75.4802L84.4844 68.0094C86.0472 67.6021 87.6536 68.5041 88.0723 70.0241L93.4923 89.6975C93.9111 91.2175 92.9836 92.7799 91.4208 93.1872L61.6943 100.934C57.795 101.95 53.8524 99.9371 52.8883 96.4376L47.2809 76.0839C46.3168 72.5843 48.6962 68.9236 52.5956 67.9074L76.3129 61.7265C77.2874 61.4725 78.289 62.035 78.5502 62.9828C78.8113 63.9306 78.233 64.9048 77.2585 65.1587L54.6009 71.0635C53.2419 71.4176 52.4127 72.6934 52.7487 73.9131ZM76.6897 83.752C76.0616 81.4719 77.4527 79.1284 79.797 78.5174C82.1412 77.9065 84.5508 79.2596 85.179 81.5396C85.8071 83.8196 84.4159 86.1632 82.0717 86.7741C79.7274 87.385 77.3178 86.032 76.6897 83.752Z" fill="currentColor"></path>
  </symbol>
<symbol viewBox="0 0 24 24" fill="none" stroke="currentColor" stroke-width="2" stroke-linecap="round" stroke-linejoin="round" class="lucide lucide-copy" id="copy"><rect width="14" height="14" x="8" y="8" rx="2" ry="2"></rect><path d="M4 16c-1.1 0-2-.9-2-2V4c0-1.1.9-2 2-2h10c1.1 0 2 .9 2 2"></path></symbol>
<symbol viewBox="0 0 24 24" fill="none" stroke="currentColor" stroke-width="2" stroke-linecap="round" stroke-linejoin="round" class="lucide lucide-menu" id="menu"><line x1="4" x2="20" y1="12" y2="12"></line><line x1="4" x2="20" y1="6" y2="6"></line><line x1="4" x2="20" y1="18" y2="18"></line></symbol>
<symbol viewBox="0 0 80 80" fill="none" id="monetize">
<path d="M44.7684 31.141C44.7684 32.5738 42.3884 34.7595 37.1184 36.1195C34.2284 36.921 30.8284 37.3338 27.2827 37.3338C23.7613 37.3338 20.3613 36.921 17.4956 36.1438C12.177 34.7595 9.82129 32.6224 9.82129 31.141C9.82129 28.6152 16.6213 24.9481 27.2827 24.9481C37.9684 24.9481 44.7684 28.6152 44.7684 31.141Z" fill="currentColor"></path>
<path d="M38.5126 60.6881C35.149 61.5721 31.2681 62.0408 27.2853 62.0408C23.3194 62.0408 19.4483 61.5745 16.0871 60.6905C12.6799 59.7895 9.97443 58.5024 8 56.9481V63.923C8 68.343 16.6384 71.9348 27.2877 71.9348C37.9613 71.9348 46.5997 68.343 46.5997 63.923V56.9481C44.6253 58.5024 41.9199 59.7895 38.5126 60.6881Z" fill="currentColor"></path>
<path d="M38.0293 42.3796C34.9134 43.2417 31.1759 43.708 27.2829 43.708C23.4311 43.708 19.7179 43.2514 16.5413 42.3917C12.6264 41.3717 9.72671 39.849 8 38.0106V47.4018C8 50.2651 11.5919 52.752 17.0149 54.1824C19.9777 54.962 23.5186 55.4137 27.2853 55.4137C31.0763 55.4137 34.6171 54.962 37.5824 54.1824C43.0079 52.752 46.5973 50.2384 46.5973 47.4018V37.9571C44.856 39.8198 41.9271 41.3741 38.0293 42.3796Z" fill="currentColor"></path>
<path d="M63.2535 18.2413C68.0603 17.0009 70.2311 15.0072 70.2311 13.7003C70.2311 11.3966 64.0288 8.05176 54.2822 8.05176C44.5578 8.05176 38.3555 11.3966 38.3555 13.7003C38.3555 15.0516 40.5042 17.0009 45.3553 18.2635C47.9691 18.9723 51.0703 19.3489 54.2822 19.3489C57.5163 19.3489 60.6175 18.9723 63.2535 18.2413Z" fill="currentColor"></path>
<path d="M54.2846 56.7256C57.9174 56.7256 61.4571 56.2981 64.5251 55.4918C67.6329 54.6722 70.1006 53.4981 71.9015 52.0805V58.4423C71.9015 62.4738 64.0223 65.75 54.2868 65.75C53.6634 65.75 53.0476 65.7365 52.441 65.7102C52.6119 64.9317 52.702 64.1228 52.702 63.293V56.6983C53.2269 56.7164 53.7548 56.7256 54.2846 56.7256Z" fill="currentColor"></path>
<path d="M52.702 50.8795C53.224 50.8989 53.7526 50.9088 54.2868 50.9088C64.0223 50.9088 71.9015 47.6327 71.9015 43.6011V37.2393C70.1006 38.657 67.6329 39.831 64.5251 40.6506C61.4571 41.4569 57.9174 41.8844 54.2846 41.8844C53.7548 41.8844 53.2269 41.8753 52.702 41.8572V50.8795Z" fill="currentColor"></path>
<path d="M52.702 35.8104C53.2238 35.8298 53.7517 35.8397 54.2846 35.8397C57.7424 35.8397 60.972 35.4277 63.6767 34.7167C68.6253 33.412 71.8992 31.1193 71.8992 28.5321V19.9174C70.311 21.6164 67.6396 23.0341 64.0843 23.9512C61.2423 24.7375 57.8332 25.1628 54.2824 25.1628C53.325 25.1628 52.3771 25.1319 51.4458 25.0711C52.2485 26.6169 52.702 28.373 52.702 30.2351V35.8104Z" fill="currentColor"></path>
</symbol>
<symbol viewBox="0 0 81 80" fill="none" id="onboard">
<path fill-rule="evenodd" clip-rule="evenodd" d="M40.5 6.39746C25.2884 6.39746 12.9569 18.7289 12.9569 33.9406C12.9566 34.1709 13.0285 34.4032 13.1772 34.6016L29.4828 56.324V73.6027H51.5173V56.324L67.8229 34.6016C67.9716 34.4032 68.0434 34.1709 68.0432 33.9406C68.0432 18.7289 55.7117 6.39746 40.5 6.39746ZM40.5 26.2285C36.2408 26.2285 32.788 29.6813 32.788 33.9406H32.8098C34.1896 40.8394 37.1951 55.9751 37.1951 55.9751H43.8049C43.8049 55.9751 46.8105 40.8394 48.1903 33.9406H48.2121C48.2121 29.6813 44.7593 26.2285 40.5 26.2285ZM31.9617 55.9751L15.1604 33.5447C15.1604 29.2854 18.6132 26.2285 22.8724 26.2285C27.1317 26.2285 30.5845 29.6813 30.5845 33.9406C30.5845 33.9406 33.5898 49.0762 34.9696 55.9751H31.9617ZM49.0384 55.9751L65.8397 33.5447C65.8397 29.2854 62.3869 26.2285 58.1276 26.2285C53.8684 26.2285 50.4156 29.6813 50.4156 33.9406C50.4156 33.9406 47.4103 49.0762 46.0305 55.9751H49.0384Z" fill="currentColor"></path>
</symbol>
<symbol viewBox="0 0 80 80" fill="none" id="power">
<path fill-rule="evenodd" clip-rule="evenodd" d="M48.4647 8L20.0005 45.6987H37.5361L31.4968 72.0001L60.7114 35.0519H42.3767L48.4647 8Z" fill="currentColor"></path>
</symbol>
<symbol viewBox="0 0 72 72" fill="none" id="sequence-logo">
<path fill-rule="evenodd" clip-rule="evenodd" d="M10.386 22.1531C9.43646 18.7274 11.5395 15.2062 15.0834 14.2883L43.9583 6.80957L37.5416 8.47161L47.8576 45.688L27.0036 51.0895C24.3457 51.778 22.7684 54.4189 23.4806 56.9882C24.1928 59.5575 26.9248 61.0822 29.5826 60.3937L61.6661 52.0836C62.552 51.8541 63.4627 52.3623 63.7001 53.2188C63.9375 54.0752 63.4117 54.9555 62.5258 55.185L28.8381 63.9107C25.2943 64.8286 21.6517 62.7956 20.7021 59.3699L10.386 22.1531ZM43.9583 6.80957C47.5021 5.89166 51.1449 7.92415 52.0945 11.3499L59.8316 39.2625C60.3064 40.9753 59.2548 42.7359 57.4829 43.1949L54.2742 44.026L43.9583 6.80957ZM19.612 22.4985C18.2515 22.8508 17.4441 24.2026 17.8087 25.5178C18.1732 26.8329 19.5716 27.6134 20.9321 27.261C22.2926 26.9086 23.1 25.5568 22.7355 24.2417C22.3709 22.9265 20.9725 22.1461 19.612 22.4985ZM33.7159 29.5647C33.3513 28.2496 34.1587 26.8978 35.5192 26.5454C36.8797 26.193 38.2781 26.9735 38.6426 28.2886C39.0072 29.6038 38.1998 30.9556 36.8393 31.3079C35.4788 31.6603 34.0804 30.8799 33.7159 29.5647ZM22.0331 40.758C21.6685 39.4428 22.4759 38.091 23.8364 37.7386L38.6167 33.9103C39.9772 33.5579 41.3757 34.3383 41.7402 35.6535C42.1047 36.9686 41.2974 38.3204 39.9369 38.6728L25.1565 42.5012C23.7961 42.8536 22.3976 42.0731 22.0331 40.758ZM19.9209 33.1379C19.5563 31.8227 20.3637 30.4709 21.7242 30.1185L27.6363 28.5872C28.9968 28.2348 30.3953 29.0153 30.7598 30.3304C31.1243 31.6455 30.317 32.9973 28.9565 33.3497L23.0443 34.8811C21.6839 35.2335 20.2854 34.453 19.9209 33.1379ZM27.4949 20.4567C26.1344 20.8091 25.327 22.1609 25.6915 23.476C26.0561 24.7911 27.4545 25.5716 28.815 25.2192L34.7271 23.6879C36.0876 23.3355 36.895 21.9837 36.5304 20.6685C36.1659 19.3534 34.7675 18.5729 33.407 18.9253L27.4949 20.4567Z" fill="currentColor"></path>
</symbol>
</defs>
</svg>