<svg width="480" height="104" viewBox="0 0 480 104" fill="none" xmlns="http://www.w3.org/2000/svg">
<path d="M-14 96C-14 91.5817 -10.4183 88 -6 88H29C33.4183 88 37 91.5817 37 96C37 100.418 33.4183 104 29 104H-6C-10.4183 104 -14 100.418 -14 96Z" fill="#2A2A2A"/>
<path d="M400 8C400 3.58172 403.582 0 408 0H443C447.418 0 451 3.58172 451 8C451 12.4183 447.418 16 443 16H408C403.582 16 400 12.4183 400 8Z" fill="#2A2A2A"/>
<path fill-rule="evenodd" clip-rule="evenodd" d="M422 40C422 35.5817 425.582 32 430 32H459C463.418 32 467 35.5817 467 40H479C481.209 40 483 41.7909 483 44C483 46.2091 481.209 48 479 48H462C461.568 48 461.153 47.9316 460.763 47.8051C460.196 47.9327 459.606 48 459 48H430C429.803 48 429.607 47.9929 429.414 47.9789C429.278 47.9928 429.14 48 429 48H412C409.791 48 408 46.2091 408 44C408 41.7909 409.791 40 412 40H422Z" fill="#2A2A2A"/>
<path d="M47 60C47 57.7909 48.7909 56 51 56H68C70.2091 56 72 57.7909 72 60C72 62.2091 70.2091 64 68 64H51C48.7909 64 47 62.2091 47 60Z" fill="#2A2A2A"/>
<path d="M149 24C144.582 24 141 27.5817 141 32H133C128.582 32 125 35.5817 125 40H115C112.791 40 111 41.7909 111 44C111 46.2091 112.791 48 115 48H132C132.14 48 132.278 47.9928 132.414 47.9789C132.607 47.9929 132.803 48 133 48H191C191.606 48 192.196 47.9327 192.763 47.8051C193.153 47.9316 193.568 48 194 48H211C213.209 48 215 46.2091 215 44C215 41.7909 213.209 40 211 40H199C199 35.5817 195.418 32 191 32H186C186 27.5817 182.418 24 178 24H149Z" fill="#2A2A2A"/>
</svg>
