<?xml version="1.0" encoding="UTF-8" standalone="no"?>
<svg
   viewBox="0 0 98 98"
   version="1.1"
   enable-background="new 0 0 76.00 76.00"
   xml:space="preserve"
   fill="#000000"
   id="svg1"
   sodipodi:docname="icon-demo.svg"
   width="98"
   height="98"
   inkscape:version="1.3.2 (091e20e, 2023-11-25)"
   xmlns:inkscape="http://www.inkscape.org/namespaces/inkscape"
   xmlns:sodipodi="http://sodipodi.sourceforge.net/DTD/sodipodi-0.dtd"
   xmlns="http://www.w3.org/2000/svg"
   xmlns:svg="http://www.w3.org/2000/svg"><defs
     id="defs1" /><sodipodi:namedview
     id="namedview1"
     pagecolor="#ffffff"
     bordercolor="#000000"
     borderopacity="0.25"
     inkscape:showpageshadow="2"
     inkscape:pageopacity="0.0"
     inkscape:pagecheckerboard="0"
     inkscape:deskcolor="#d1d1d1"
     inkscape:zoom="2.1981188"
     inkscape:cx="18.424846"
     inkscape:cy="26.841134"
     inkscape:window-width="1312"
     inkscape:window-height="449"
     inkscape:window-x="0"
     inkscape:window-y="38"
     inkscape:window-maximized="0"
     inkscape:current-layer="svg1" /><path
     fill="#000000"
     fill-opacity="1"
     stroke-width="0.2"
     stroke-linejoin="round"
     d="M 38,15.8333 C 50.2423,15.8333 60.1667,25.7577 60.1667,38 60.1667,50.2423 50.2423,60.1667 38,60.1667 25.7577,60.1667 15.8333,50.2423 15.8333,38 15.8333,25.7577 25.7577,15.8333 38,15.8333 Z M 19.065,36.4167 h 6.3001 c 0.1057,-2.6207 0.4717,-5.1156 1.0531,-7.4061 -1.4711,-0.5161 -2.8286,-1.1275 -4.0463,-1.8193 -1.8438,2.6609 -3.0256,5.8155 -3.3069,9.2254 z M 30.0541,20.7363 c -2.1572,0.9945 -4.0962,2.3814 -5.7255,4.0693 0.9074,0.47 1.9109,0.8933 2.9946,1.2621 0.7408,-2.0258 1.6647,-3.8267 2.7309,-5.3314 z m 6.3626,15.6804 v -5.5735 c -2.4704,-0.0996 -4.8289,-0.4306 -7.0098,-0.9551 -0.4748,2.0081 -0.7787,4.2093 -0.8744,6.5286 z m 0,-17.154 c -2.5143,0.8436 -4.6936,3.6624 -6.1256,7.6312 1.8983,0.4218 3.9604,0.6926 6.1256,0.7819 z m 20.5182,17.154 c -0.2813,-3.4099 -1.463,-6.5644 -3.3068,-9.2254 -1.2177,0.6918 -2.5753,1.3033 -4.0463,1.8194 0.5813,2.2904 0.9473,4.7853 1.053,7.406 z M 45.9459,20.7363 c 1.0661,1.5047 1.99,3.3057 2.7308,5.3314 1.0838,-0.3688 2.0872,-0.7921 2.9947,-1.2621 -1.6293,-1.6879 -3.5683,-3.0748 -5.7255,-4.0693 z m -6.3626,15.6804 h 7.8841 c -0.0956,-2.3193 -0.3996,-4.5205 -0.8743,-6.5286 -2.1809,0.5245 -4.5395,0.8555 -7.0098,0.9551 z m 0,-17.154 v 8.4131 c 2.1651,-0.0893 4.2273,-0.3601 6.1255,-0.7819 -1.4319,-3.9688 -3.6113,-6.7875 -6.1255,-7.6312 z m 17.3516,20.3207 h -6.3001 c -0.1057,2.6206 -0.4717,5.1155 -1.053,7.406 1.471,0.5161 2.8286,1.1275 4.0463,1.8193 1.8438,-2.6609 3.0255,-5.8155 3.3068,-9.2253 z m -10.989,15.6804 c 2.1572,-0.9946 4.0962,-2.3815 5.7255,-4.0694 -0.9074,-0.47 -1.9109,-0.8933 -2.9947,-1.2621 -0.7408,2.0258 -1.6647,3.8268 -2.7308,5.3315 z M 39.5833,39.5834 v 5.5734 c 2.4703,0.0996 4.8289,0.4306 7.0098,0.9551 0.4747,-2.0081 0.7787,-4.2092 0.8744,-6.5285 z m 0,17.1539 c 2.5142,-0.8436 4.6936,-3.6623 6.1256,-7.6312 -1.8983,-0.4218 -3.9605,-0.6926 -6.1256,-0.7819 z M 19.065,39.5834 c 0.2813,3.4098 1.4631,6.5644 3.3069,9.2253 1.2177,-0.6918 2.5752,-1.3032 4.0463,-1.8193 -0.5814,-2.2905 -0.9474,-4.7854 -1.0531,-7.406 z m 10.9891,15.6804 c -1.0661,-1.5047 -1.99,-3.3057 -2.7309,-5.3315 -1.0837,0.3688 -2.0872,0.7921 -2.9946,1.2622 1.6293,1.6878 3.5683,3.0748 5.7255,4.0693 z m 6.3626,-15.6804 h -7.8842 c 0.0957,2.3193 0.3996,4.5205 0.8744,6.5285 2.1809,-0.5245 4.5394,-0.8555 7.0098,-0.9551 z m 0,17.1539 v -8.4131 c -2.1652,0.0893 -4.2274,0.3601 -6.1256,0.7819 1.432,3.9689 3.6113,6.7876 6.1256,7.6312 z"
     id="path1"
     transform="matrix(2.2045537,0,0,2.2045537,-34.662878,-34.662878)"
     inkscape:label="globe" /></svg>
