<?xml version="1.0" encoding="UTF-8" standalone="no"?>
<svg
   width="16"
   height="16"
   viewBox="0 0 16 16"
   fill="none"
   version="1.1"
   id="svg7"
   sodipodi:docname="monetize.svg"
   inkscape:version="1.3.2 (091e20e, 2023-11-25)"
   xmlns:inkscape="http://www.inkscape.org/namespaces/inkscape"
   xmlns:sodipodi="http://sodipodi.sourceforge.net/DTD/sodipodi-0.dtd"
   xmlns="http://www.w3.org/2000/svg"
   xmlns:svg="http://www.w3.org/2000/svg">
  <defs
     id="defs7" />
  <sodipodi:namedview
     id="namedview7"
     pagecolor="#cccccc"
     bordercolor="#000000"
     borderopacity="0.25"
     inkscape:showpageshadow="2"
     inkscape:pageopacity="0.0"
     inkscape:pagecheckerboard="0"
     inkscape:deskcolor="#d1d1d1"
     inkscape:zoom="14.75"
     inkscape:cx="7.9661017"
     inkscape:cy="8"
     inkscape:window-width="1312"
     inkscape:window-height="449"
     inkscape:window-x="0"
     inkscape:window-y="38"
     inkscape:window-maximized="0"
     inkscape:current-layer="svg7" />
  <path
     d="M9.07294 6.00659C9.07294 6.32899 8.53745 6.82077 7.3517 7.12677C6.70145 7.30709 5.93645 7.39998 5.13866 7.39998C4.34634 7.39998 3.58134 7.30709 2.93655 7.13224C1.73987 6.82077 1.20984 6.33991 1.20984 6.00659C1.20984 5.43831 2.73984 4.6132 5.13866 4.6132C7.54295 4.6132 9.07294 5.43831 9.07294 6.00659Z"
     fill="#888888"
     id="path1"
     style="fill:#ffffff" />
  <path
     d="M7.66538 12.6547C6.90857 12.8536 6.03538 12.9591 5.13924 12.9591C4.24692 12.9591 3.37591 12.8541 2.61966 12.6552C1.85302 12.4525 1.2443 12.1629 0.800049 11.8132V13.3825C0.800049 14.377 2.7437 15.1852 5.13978 15.1852C7.54134 15.1852 9.48498 14.377 9.48498 13.3825V11.8132C9.04074 12.1629 8.43202 12.4525 7.66538 12.6547Z"
     fill="#888888"
     id="path2"
     style="fill:#ffffff" />
  <path
     d="M7.55664 8.53528C6.85557 8.72926 6.01462 8.83417 5.13869 8.83417C4.27206 8.83417 3.43657 8.73145 2.72184 8.53801C1.841 8.30851 1.18856 7.9659 0.800049 7.55225V9.66529C0.800049 10.3095 1.60822 10.8691 2.82839 11.1909C3.49503 11.3663 4.29173 11.468 5.13924 11.468C5.99221 11.468 6.78891 11.3663 7.45609 11.1909C8.67682 10.8691 9.48444 10.3035 9.48444 9.66529V7.54023C9.09265 7.95934 8.43366 8.30906 7.55664 8.53528Z"
     fill="#888888"
     id="path3"
     style="fill:#ffffff" />
  <path
     d="M13.2321 3.10418C14.3136 2.82507 14.8021 2.37651 14.8021 2.08245C14.8021 1.56411 13.4065 0.811523 11.2136 0.811523C9.02556 0.811523 7.63003 1.56411 7.63003 2.08245C7.63003 2.38648 8.11348 2.82507 9.20499 3.10916C9.7931 3.26865 10.4909 3.35338 11.2136 3.35338C11.9412 3.35338 12.639 3.26865 13.2321 3.10418Z"
     fill="#888888"
     id="path4"
     style="fill:#ffffff" />
  <path
     d="M11.2141 11.7631C12.0315 11.7631 12.8279 11.6669 13.5182 11.4855C14.2175 11.3011 14.7727 11.037 15.1779 10.718V12.1494C15.1779 13.0565 13.4051 13.7936 11.2146 13.7936C11.0743 13.7936 10.9358 13.7906 10.7993 13.7847C10.8377 13.6095 10.858 13.4275 10.858 13.2408V11.757C10.9761 11.7611 11.0949 11.7631 11.2141 11.7631Z"
     fill="#888888"
     id="path5"
     style="fill:#ffffff" />
  <path
     d="M10.858 10.4478C10.9755 10.4521 11.0944 10.4544 11.2146 10.4544C13.4051 10.4544 15.1779 9.71722 15.1779 8.81013V7.37872C14.7727 7.69769 14.2175 7.96185 13.5182 8.14626C12.8279 8.32768 12.0315 8.42387 11.2141 8.42387C11.0949 8.42387 10.9761 8.42181 10.858 8.41774V10.4478Z"
     fill="#888888"
     id="path6"
     style="fill:#ffffff" />
  <path
     d="M10.858 7.05723C10.9754 7.06159 11.0942 7.06382 11.2141 7.06382C11.9921 7.06382 12.7188 6.97112 13.3273 6.81113C14.4407 6.51757 15.1774 6.00172 15.1774 5.41959V3.4813C14.82 3.86357 14.2189 4.18255 13.419 4.38889C12.7796 4.56582 12.0125 4.66152 11.2136 4.66152C10.9982 4.66152 10.7849 4.65456 10.5754 4.64087C10.756 4.98867 10.858 5.38381 10.858 5.80278V7.05723Z"
     fill="#888888"
     id="path7"
     style="fill:#ffffff" />
</svg>
