<?xml version="1.0" encoding="UTF-8" standalone="no"?>
<svg
   width="14"
   height="16"
   viewBox="0 0 14 16"
   fill="none"
   version="1.1"
   id="svg1"
   sodipodi:docname="onboard.svg"
   inkscape:version="1.3.2 (091e20e, 2023-11-25)"
   xmlns:inkscape="http://www.inkscape.org/namespaces/inkscape"
   xmlns:sodipodi="http://sodipodi.sourceforge.net/DTD/sodipodi-0.dtd"
   xmlns="http://www.w3.org/2000/svg"
   xmlns:svg="http://www.w3.org/2000/svg">
  <defs
     id="defs1" />
  <sodipodi:namedview
     id="namedview1"
     pagecolor="#cccccc"
     bordercolor="#000000"
     borderopacity="0.25"
     inkscape:showpageshadow="2"
     inkscape:pageopacity="0.0"
     inkscape:pagecheckerboard="0"
     inkscape:deskcolor="#d1d1d1"
     inkscape:zoom="14.75"
     inkscape:cx="7.0169492"
     inkscape:cy="8"
     inkscape:window-width="1312"
     inkscape:window-height="449"
     inkscape:window-x="0"
     inkscape:window-y="38"
     inkscape:window-maximized="0"
     inkscape:current-layer="svg1" />
  <path
     fill-rule="evenodd"
     clip-rule="evenodd"
     d="M7 0.439453C3.57738 0.439453 0.802796 3.21403 0.802796 6.63666C0.802735 6.68848 0.818894 6.74074 0.852361 6.78539L4.52112 11.6729V15.5606H9.47888V11.6729L13.1476 6.78539C13.1811 6.74074 13.1973 6.68848 13.1972 6.63666C13.1972 3.21403 10.4226 0.439453 7 0.439453ZM7 4.90144C6.04167 4.90144 5.26478 5.67832 5.26478 6.63666H5.26968C5.58015 8.18889 6.2564 11.5944 6.2564 11.5944H7.7436C7.7436 11.5944 8.41985 8.18889 8.73031 6.63666H8.73522C8.73522 5.67832 7.95833 4.90144 7 4.90144ZM5.07887 11.5944L1.29857 6.54757C1.29857 5.58924 2.07546 4.90144 3.03379 4.90144C3.99212 4.90144 4.76901 5.67832 4.76901 6.63666C4.76901 6.63666 5.44519 10.0422 5.75566 11.5944H5.07887ZM8.92113 11.5944L12.7014 6.54757C12.7014 5.58924 11.9245 4.90144 10.9662 4.90144C10.0079 4.90144 9.23099 5.67832 9.23099 6.63666C9.23099 6.63666 8.55481 10.0422 8.24434 11.5944H8.92113Z"
     fill="white"
     id="path1"
     style="fill:#ffffff" />
</svg>
