<svg width="30" height="30" viewBox="0 0 30 30" fill="none" xmlns="http://www.w3.org/2000/svg">
<path fill-rule="evenodd" clip-rule="evenodd" d="M4.38307 9.54838C3.99522 8.14915 4.85422 6.71091 6.3017 6.33598L18.0957 3.28131L15.4748 3.96017L19.6883 19.1612L11.1705 21.3675C10.0849 21.6487 9.44067 22.7274 9.73156 23.7768C10.0225 24.8262 11.1383 25.449 12.2239 25.1678L25.3284 21.7735C25.6903 21.6798 26.0623 21.8874 26.1592 22.2372C26.2562 22.587 26.0414 22.9465 25.6796 23.0403L11.9198 26.6043C10.4724 26.9792 8.98453 26.1488 8.59668 24.7496L4.38307 9.54838ZM18.0957 3.28131C19.5432 2.90639 21.0311 3.73656 21.4189 5.1358L24.5791 16.5367C24.7731 17.2363 24.3436 17.9555 23.6198 18.1429L22.3092 18.4824L18.0957 3.28131ZM8.15142 9.6891C7.59573 9.83303 7.26595 10.3852 7.41485 10.9224C7.56375 11.4595 8.13493 11.7783 8.69063 11.6344C9.24632 11.4904 9.57609 10.9383 9.4272 10.4011C9.2783 9.86395 8.70712 9.54517 8.15142 9.6891ZM13.9121 12.5753C13.7633 12.0382 14.093 11.486 14.6487 11.3421C15.2044 11.1981 15.7756 11.5169 15.9245 12.0541C16.0734 12.5913 15.7436 13.1434 15.1879 13.2873C14.6322 13.4313 14.061 13.1125 13.9121 12.5753ZM9.14031 17.1472C8.99141 16.61 9.32119 16.0579 9.87688 15.914L15.9139 14.3503C16.4696 14.2063 17.0408 14.5251 17.1897 15.0623C17.3386 15.5994 17.0088 16.1516 16.4531 16.2955L10.4161 17.8592C9.86039 18.0032 9.28921 17.6844 9.14031 17.1472ZM8.27758 14.0348C8.12868 13.4976 8.45846 12.9455 9.01415 12.8015L11.429 12.176C11.9847 12.0321 12.5558 12.3509 12.7047 12.8881C12.8536 13.4252 12.5239 13.9774 11.9682 14.1213L9.55336 14.7468C8.99766 14.8907 8.42648 14.5719 8.27758 14.0348ZM11.3712 8.85513C10.8155 8.99906 10.4857 9.55121 10.6346 10.0884C10.7835 10.6255 11.3547 10.9443 11.9104 10.8004L14.3252 10.1749C14.8809 10.031 15.2107 9.47884 15.0618 8.94167C14.9129 8.40449 14.3417 8.08571 13.786 8.22965L11.3712 8.85513Z" fill="white"/>
</svg>
