<?xml version="1.0" encoding="UTF-8" standalone="no"?>
<svg
   width="150"
   height="60"
   viewBox="0 0 150 60"
   fill="none"
   version="1.1"
   id="svg15"
   sodipodi:docname="bot-default.svg"
   inkscape:version="1.3.2 (091e20e, 2023-11-25)"
   xmlns:inkscape="http://www.inkscape.org/namespaces/inkscape"
   xmlns:sodipodi="http://sodipodi.sourceforge.net/DTD/sodipodi-0.dtd"
   xmlns="http://www.w3.org/2000/svg"
   xmlns:svg="http://www.w3.org/2000/svg">
  <defs
     id="defs15">
    <mask
       id="path-1-inside-1_4931_51833"
       fill="#ffffff">
      <rect
         x="0.5"
         y="5"
         width="10"
         height="13"
         rx="1"
         id="rect1-0" />
    </mask>
  </defs>
  <sodipodi:namedview
     id="namedview15"
     pagecolor="#ffffff"
     bordercolor="#000000"
     borderopacity="0.25"
     inkscape:showpageshadow="2"
     inkscape:pageopacity="0.0"
     inkscape:pagecheckerboard="0"
     inkscape:deskcolor="#d1d1d1"
     inkscape:zoom="2.3567766"
     inkscape:cx="35.429748"
     inkscape:cy="38.187752"
     inkscape:window-width="1576"
     inkscape:window-height="767"
     inkscape:window-x="0"
     inkscape:window-y="38"
     inkscape:window-maximized="0"
     inkscape:current-layer="svg15" />
  <rect
     opacity="0.5"
     x="10.924309"
     y="57"
     width="29"
     height="3"
     rx="1.5"
     fill="#000000"
     id="rect1" />
  <path
     d="m 7.9243084,39 v 8"
     stroke="#c7d6dc"
     stroke-width="4"
     stroke-linecap="round"
     id="path1" />
  <path
     d="m 7.9243084,44 h 10e-5"
     stroke="#6c828b"
     stroke-width="4"
     stroke-linecap="square"
     id="path2" />
  <path
     d="m 42.924308,39 v 8"
     stroke="#c7d6dc"
     stroke-width="4"
     stroke-linecap="round"
     id="path3" />
  <path
     d="m 42.924308,44 h 10e-5"
     stroke="#6c828b"
     stroke-width="4"
     stroke-linecap="square"
     id="path4" />
  <path
     d="m 13.924308,49 v 8"
     stroke="#6c828b"
     stroke-width="4"
     stroke-linecap="round"
     id="path5" />
  <path
     d="m 13.924308,54 h 10e-5"
     stroke="#506973"
     stroke-width="4"
     stroke-linecap="square"
     id="path6" />
  <path
     d="m 36.924308,49 v 8"
     stroke="#6c828b"
     stroke-width="4"
     stroke-linecap="round"
     id="path7" />
  <path
     d="m 36.924308,54 h 10e-5"
     stroke="#506973"
     stroke-width="4"
     stroke-linecap="square"
     id="path8" />
  <path
     d="m 11.924308,39 c 0,-1.1046 0.8954,-2 2,-2 h 23 c 1.1046,0 2,0.8954 2,2 v 9 c 0,1.1046 -0.8954,2 -2,2 h -23 c -1.1046,0 -2,-0.8954 -2,-2 z"
     fill="#9babb2"
     id="path9" />
  <path
     d="m 17.924308,37 h 17 v 3 c 0,2.2091 -1.7909,4 -4,4 h -9 c -2.2091,0 -4,-1.7909 -4,-4 z"
     fill="#6c828b"
     id="path10" />
  <path
     d="m 11.924308,47 h 27 v 1 c 0,1.1046 -0.8954,2 -2,2 h -23 c -1.1046,0 -2,-0.8954 -2,-2 z"
     fill="#6c828b"
     id="path11" />
  <path
     d="m 0.92430836,8 c 0,-4.41828 3.58170004,-8 8.00000004,-8 H 40.924308 c 4.4183,0 8,3.58172 8,8 v 17 c 0,4.4183 -3.5817,8 -8,8 H 8.9243084 c -4.4183,0 -8.00000004,-3.5817 -8.00000004,-8 z"
     fill="#6c828b"
     id="path12" />
  <path
     d="m 14.924308,12 c 0,-2.20914 1.7909,-4 4,-4 h 26 c 2.2091,0 4,1.79086 4,4 v 13 c 0,4.4183 -3.5817,8 -8,8 h -22 c -2.2091,0 -4,-1.7909 -4,-4 z"
     fill="#a3b4bc"
     id="path13" />
  <path
     d="m 23.924308,15 v 7"
     stroke="#000000"
     stroke-width="5"
     stroke-linecap="round"
     id="path14" />
  <path
     d="m 38.924308,14.5 v 7"
     stroke="#000000"
     stroke-width="5"
     stroke-linecap="round"
     id="path15" />
  <rect
     x="7.9243083"
     y="2"
     width="39"
     height="29"
     rx="6"
     stroke="#ffffff"
     stroke-width="4"
     id="rect15" />
  <rect
     opacity="0.5"
     x="110.84862"
     y="57.072708"
     width="29"
     height="3"
     rx="1.5"
     fill="#000000"
     id="rect1-9" />
  <path
     d="m 107.84862,39.072718 v 8"
     stroke="#6c828b"
     stroke-width="4"
     stroke-linecap="round"
     id="path1-0" />
  <path
     d="m 107.84862,44.072718 h 1e-4"
     stroke="#6c828b"
     stroke-width="4"
     stroke-linecap="square"
     id="path2-5" />
  <path
     d="m 142.84862,39.072718 v 8"
     stroke="#6c828b"
     stroke-width="4"
     stroke-linecap="round"
     id="path3-2" />
  <path
     d="m 142.84862,44.072718 h 10e-5"
     stroke="#6c828b"
     stroke-width="4"
     stroke-linecap="square"
     id="path4-2" />
  <path
     d="m 113.84862,49.072718 v 8"
     stroke="#6c828b"
     stroke-width="4"
     stroke-linecap="round"
     id="path5-7" />
  <path
     d="m 136.84862,49.072718 v 8"
     stroke="#6c828b"
     stroke-width="4"
     stroke-linecap="round"
     id="path6-3" />
  <path
     d="m 113.84862,39.072718 h 23 v 9 h -23 z"
     fill="#1d1d1d"
     stroke="#6c828b"
     stroke-width="4"
     id="path7-7" />
  <path
     d="m 111.84862,47.072718 h 27 v 1 c 0,1.1046 -0.8954,2 -2,2 h -23 c -1.1046,0 -2,-0.8954 -2,-2 z"
     fill="#6c828b"
     id="path8-9" />
  <path
     d="m 101.84862,8.0727156 c 0,-4.41828 3.5817,-8.00000012 8,-8.00000012 h 32 c 4.4183,0 8,3.58172012 8,8.00000012 V 25.072718 c 0,4.4183 -3.5817,8 -8,8 h -32 c -4.4183,0 -8,-3.5817 -8,-8 z"
     fill="#6c828b"
     id="path9-0" />
  <path
     d="m 105.84862,12.072718 c 0,-2.2091404 1.7909,-4.0000024 4,-4.0000024 h 27 c 2.2091,0 4,1.790862 4,4.0000024 v 13 c 0,4.4183 -3.5817,8 -8,8 h -23 c -2.2091,0 -4,-1.7909 -4,-4 z"
     fill="#1d1d1d"
     id="path10-2" />
  <path
     d="m 112.84862,15.072718 v 7"
     stroke="#6c828b"
     stroke-width="5"
     stroke-linecap="round"
     id="path11-3" />
  <path
     d="m 127.84862,14.572718 v 7"
     stroke="#6c828b"
     stroke-width="5"
     stroke-linecap="round"
     id="path12-9" />
  <rect
     x="103.84862"
     y="2.0727153"
     width="39"
     height="29"
     rx="6"
     stroke="#6c828b"
     stroke-width="4"
     id="rect12" />
  <rect
     x="0.5"
     y="5"
     width="10"
     height="13"
     rx="1"
     stroke="#9babb2"
     stroke-width="4"
     mask="url(#path-1-inside-1_4931_51833)"
     id="rect2"
     transform="translate(66.075692,22)" />
  <path
     d="m 71.575692,23 h 8 v 11 h -4 v -4 c 0,-1.10457 -0.89543,-2 -2,-2 h -2 z"
     stroke="#9babb2"
     stroke-width="2"
     id="path2-7" />
</svg>
